/* XPM */
static char *Dolphin1743520333[] = {
/* columns rows colors chars-per-pixel */
"64 64 226 2 ",
"   c #42193B",
".  c #5D0A38",
"X  c #3A324F",
"o  c #5A1947",
"O  c #631A4A",
"+  c #671B56",
"@  c #791A5B",
"#  c #760E4A",
"$  c #4B254B",
"%  c #57284C",
"&  c #572955",
"*  c #453758",
"=  c #58365A",
"-  c #492A50",
";  c #68285A",
":  c #67355E",
">  c #712656",
",  c #4B3C65",
"<  c #5C3262",
"1  c #772A68",
"2  c #7A356B",
"3  c #7C3871",
"4  c #6E3F6B",
"5  c #7E1764",
"6  c #4C455E",
"7  c #49466E",
"8  c #4B4675",
"9  c #485678",
"0  c #544F72",
"q  c #635778",
"w  c #654772",
"e  c #78475C",
"r  c #851357",
"t  c #941270",
"y  c #AE1274",
"u  c #8A266D",
"i  c #972679",
"p  c #8A3979",
"a  c #8F2D74",
"s  c #AA237B",
"d  c #874476",
"f  c #485C89",
"g  c #5D5D83",
"h  c #466887",
"j  c #4A6B97",
"k  c #59749B",
"l  c #497397",
"z  c #676D8D",
"x  c #4C76A6",
"c  c #4E76AB",
"v  c #B51790",
"b  c #993785",
"n  c #A62785",
"m  c #BA2B96",
"M  c #AE368C",
"N  c #D11095",
"B  c #EC149E",
"V  c #CB2895",
"C  c #D50DAA",
"Z  c #E910AB",
"A  c #C93AA3",
"S  c #D330AD",
"D  c #E728A5",
"F  c #E829B5",
"G  c #EA37BC",
"H  c #F633BE",
"J  c #F328B6",
"K  c #954587",
"L  c #96498E",
"P  c #A54A99",
"I  c #AB5199",
"U  c #9B49A0",
"Y  c #B74CA6",
"T  c #AF55AB",
"R  c #B967B0",
"E  c #C84AAD",
"W  c #D648B7",
"Q  c #D051B8",
"!  c #C668BD",
"~  c #F92EC2",
"^  c #EC3BC5",
"/  c #F432C4",
"(  c #F33CCB",
")  c #F736C8",
"_  c #EC2BC0",
"`  c #DB52C4",
"'  c #EB48CA",
"]  c #F343CC",
"[  c #F546C9",
"{  c #E952CB",
"}  c #EE4CD2",
"|  c #EF4DD9",
" . c #F34CD3",
".. c #EE56DA",
"X. c #ED5CDC",
"o. c #EC55D3",
"O. c #F254DA",
"+. c #F25BDD",
"@. c #F255D6",
"#. c #D566CA",
"$. c #D976D5",
"%. c #D26BCA",
"&. c #ED63DD",
"*. c #E766D8",
"=. c #F264DD",
"-. c #EE5AE1",
";. c #F25CE1",
":. c #F459E2",
">. c #DE6DE1",
",. c #EE65E4",
"<. c #ED6FEC",
"1. c #ED6AE6",
"2. c #F262E4",
"3. c #F36BE5",
"4. c #F26CEB",
"5. c #F468EA",
"6. c #EE73EB",
"7. c #E876E5",
"8. c #F273EC",
"9. c #F47CED",
"0. c #F076E6",
"q. c #F57EF2",
"w. c #F87FF4",
"e. c #F277F0",
"r. c #4C87B7",
"t. c #5186BA",
"y. c #568BB9",
"u. c #5998BD",
"i. c #5586AC",
"p. c #658AAC",
"a. c #4C8ECA",
"s. c #4D91CC",
"d. c #4F99CE",
"f. c #5498C6",
"g. c #4997D7",
"h. c #4998D7",
"j. c #4B9BD9",
"k. c #519EDB",
"l. c #5CA3C8",
"z. c #59A0C9",
"x. c #4DA3DC",
"c. c #4FA8DF",
"v. c #54A3DD",
"b. c #59A4DE",
"n. c #56ACD9",
"m. c #57A9D7",
"M. c #57B0DA",
"N. c #5AB1DB",
"B. c #68A7CB",
"V. c #78A9CC",
"C. c #67A7D9",
"Z. c #72AFD0",
"A. c #68B4DD",
"S. c #7CB5D4",
"D. c #77B4D5",
"F. c #4FAAE0",
"G. c #51ACE1",
"H. c #5DABE2",
"J. c #5AA7E0",
"K. c #53B4E5",
"L. c #5BB4E6",
"P. c #54B9E7",
"I. c #55BAE8",
"U. c #5BBDEA",
"Y. c #61AEE4",
"T. c #64B2E6",
"R. c #69B6E9",
"E. c #62BDEA",
"W. c #6CBAEA",
"Q. c #69B8E2",
"!. c #72BEED",
"~. c #76BBE3",
"^. c #5FC0EC",
"/. c #64C2ED",
"(. c #6AC4EE",
"). c #72C4ED",
"_. c #7AC9ED",
"`. c #7AC3E8",
"'. c #6CC6F0",
"]. c #6FC9F1",
"[. c #7AC6F1",
"{. c #73CAF2",
"}. c #7ACDF4",
"|. c #75C4F0",
" X c #7ED0F6",
".X c #8A98B3",
"XX c #87BBD8",
"oX c #89BCD9",
"OX c #83B7D6",
"+X c #87BFE5",
"@X c #DD84E4",
"#X c #EC88E8",
"$X c #F483EE",
"%X c #F489EE",
"&X c #F986EF",
"*X c #F583F2",
"=X c #F885F2",
"-X c #F489F1",
";X c #F98BF2",
":X c #F18DEC",
">X c #84CCED",
",X c #8BCDED",
"<X c #85C7EA",
"1X c #8CD0EF",
"2X c #82CEF4",
"3X c #8ECFF4",
"4X c #84D1F7",
"5X c #85D3F9",
"6X c #89D6FB",
"7X c #8DD9FC",
"8X c #89D1F2",
"9X c #93DBFC",
"0X c #9ADCFB",
"qX c #9AD7F4",
"wX c #99CCEE",
"eX c #B5D5EF",
"rX c #A6DCF5",
"tX c #A8D1EF",
"yX c #ACE2FC",
"uX c #B9E7FD",
"iX c #DCD9E0",
"pX c #C7EAFA",
"aX c #DBF2FC",
"sX c #E8F6FD",
"dX c #F3FAFE",
"fX c #F9FCFE",
/* pixels */
"u.M.M.M.M.N.1X,X,X>XN.N.N.N.N.N.L.1X,X`.M.M.`.`.M.M.M.M.M.M.M.M.M.M.M.M.M.M.M.M.`.`.M.M.D.1X1XQ.N.N.N.N.M.N._.,X,X,XA.M.M.M.M.m.",
"Z.{.].].].].}.{.{.].U.I.P.I.I.P.^.{.{.{.].P.(.{.].qX1X].].].].].].].].].]. XqX{.].(.P.].{.{.{.^.I.I.I.I.I.I.].{.{.{.{.].].].].~.",
"XX6X6X6X6X XP.I.I.I.I.I.I.I.I.I.I.I.I.(.6X/.U.{.9XaXuX6X6X6X6X6X6X6X6X6X6XyXsX9X}./.U.5X].I.I.I.I.I.I.I.I.I.I.I.U.P. X6X6X5X6X>X",
"l.I.I.I.I.I.I.I.I.I.I.I.I.I.I.I.I.I.I.I.I.5XpXaX6X/.I.P.I.P.K.z.M.P.I.I.I.P.^.6XpXaX7XU.I.I.I.I.I.I.I.I.I.I.I.I.P.P.P.P.P.P.^.M.",
"l.I.P.P.P.P.I.I.I.I.I.I.I.I.I.I.I.I.P./.4X/.).]./.I.I.I.I.u.* 4 = 9 K.^.I.I.I./.(.{./. X'.P.I.I.I.I.I.I.I.I.I.I.^.P.P.P.^.^.P.M.",
"f.K.K.P.I.I.I.I.I.I.I.I.I.I.I.I.P.I.^.]. XU.I.I.I.I.I.P.K.7 R @X@X: r.P.I.I.P.P.I.I.I. X{./.I.I.I.I.I.I.I.I.I.I.K.P.P.^.P.G.G.x.",
"t.h.g.K.K.K.I.I.I.I.I.I.I.I.I.I.P.P. X}.I.I.I.I.I.I.I.P.z.e :Xw.7.! 7 M.I.I.P.I.I.I.I.I.].5XP.I.I.I.I.I.I.I.I.I.^.K.P.P.K.h.h.a.",
"t.g.g.h.j.x.I.I.I.I.I.I.I.I.I.I.P.P. X}.P.I.I.I.I.I.I.P.j L 6.4.0.@X7 j.K.I.I.I.I.I.I.I.].5XP.I.I.I.I.I.I.I.I.I.P.P.x.h.h.h.h.a.",
"B.W.W.W.v.g.G.I.I.I.I.I.I.I.I.I.I.I.(.{.].I.I.I.I.G.F.J.j U 6.4.7.#Xw R.J.F.F.I.I.I.I.].].].I.I.I.I.I.I.I.I.P.P.P.F.j.k.R.W.R.A.",
"OX4X4X2XT.J.b.G.K././.E./._._._.)././.{.7X(.U.I.K.j.j.H.k T 7.8.7.@XO }.Y.v.g.F.K.I./.7X}.^.^.]._._._.(.^./.E.U.F.c.b.T.}.4X4X<X",
"f.U.I.j.).7X6Xv.Y.7X7X7XyXfXfXfXsX7X7X7X7X7X'.F.g.g.W.2X7 K >.8.7.$.. d.2X!.g.g.G.E.7X7X7X7X6XaXfXfXfXuX7X7X7XR.x.5X7X_.h.P.P.N.",
"z.I.I.K.L.U.b.}.!.v.v.k.N.).).(.(.U.U.L.v.v.!.).g.|.k X 1 %.-X;X*X7.P   9 C.[.j.W.|.k.F.H.E.U.(.).(.).H.k.v.v.W.{.c.P.U.K.K.P.N.",
"l.I.I.I.I.I.T.W.Y.g.g.g.j.G.G.G.F.G.G.x.g.g.Y.W.Y.q 3 $.#X:X;X-X*X*X-X#XU - B.Y.W.R.g.g.j.G.G.G.n.F.F.x.g.g.g.J.!.T.I.I.I.I.I.N.",
"l.I.I.I.I./.5Xb.j.j.g.g.g.g.g.g.g.g.g.g.g.g.g.b.g L %X%X-X;X-X-X7.*X*Xw.0.$.= D.T.g.g.g.j.g.g.g.h.h.g.g.h.h.j.j.v.4X(.U.I.I.I.n.",
"z.I.I.I.}.5XI.P.P.K.j.g.g.g.g.g.g.g.h.j.g.g.h.f > %X=X%X;X*X*X*X-X-X*X*X<.4.%.- d.g.g.g.g.g.g.g.g.g.g.g.h.j.K.I.P.P. X XI.I.I.N.",
"D.}.}.}.5X6X}.}.}.{.G.G.x.g.g.g.g.g.g.j.G.G.v.& $.*X=X-X-X-X*X=X-X-X;X*Xe.<.7.p f G.G.G.x.g.g.g.g.g.g.x.F.G.).{.}.{.6X6X}.}.{.`.",
"S. X X X X X X X X}.(.(./.H.H.H.H.x.x.F.I.I.l I 9.*X-X*X*X-X*X=X=X*X*X=Xe.4.<.$.& /.I.I.G.x.x.b.H.H.Y.E.(.(.{.}. X X X X X X X_.",
"l.P.I.I.P.I.I.P.I.^.6X7X7X7X7X7X5XI.I.I.I.I.* $.*X*X-X*X*Xw.w.*X=X*X=X*X6.<.4.q.2 D.P.P.I.I.P. X7X7X7X9X7X7X^.^.I.P.I.I.P.P.P.M.",
"l.P.I.I.I.I.I.I.I.I.^.^.^.^.^.^./.5X^./.4X8X= #X*X*X-X*X*X=X;X=X=X*X*X*X8.<.<.<.L i.6X5X].^.5X'.U.^.U.^.^.^.I.I.I.I.I.I.I.I.I.M.",
"l.P.I.I.I.I.I.I.I.I.I.I.I.I.I.I.^.].{.{.{.A.= 9.q.q.*X*X=X*X*X*X*X*X*X9.4.4.<.1.T h ].].].].].^.I.I.I.I.I.I.I.I.I.I.I.I.I.I.I.M.",
"f.K.I.I.I.I.I.I.I.I.I.I.I.U.U.U.U.I. X}.I.M.4 6.e.*X9.9.&X&X%X-X-X#Xw.1.5.5.1.5.R h P.P.].5XU.U.U.U.U.I.I.I.I.I.I.P.P.P.I.I.P.M.",
"t.x.I.P.I.I.I.I.I.I.I.I./.6X7X7X7X7X7X}.P.m.& 6.4.$X&X$Xq.%X:X; K 9.0.1.5.2.1.3.P h P.P.].9X6X7X7X7X7X'.I.I.I.I.I.I.I.P.I.I.c.a.",
"t.j.x.x.K.I.I.I./. X X X}././././././.{.~.6   3.,.9.$X$X9.$X#X2 p 4.5.5.2.3.1.1.K - .X6X{././././././.{. X X X(.I.I.P.P.x.x.j.a.",
"t.h.h.h.x.G.I./.].{.}.{.'.I.I.I.I.I.K.B.$ R + $.5.;.3.4.4.4.0.0.0.,.,.-.,.3.2.9.2 %.2 z /.I.I.I.I.I.I.(.}.{.}.].(.I.G.x.g.g.g.a.",
"t.h.h.h.g.j.U.4X}.P.I.I.I.I.I.I.I.I.K.6 T 1.1 #.+.2.2.2.2.2.2.2.1.0.3.2.2.;.5.0.; #.,.% y.I.I.I.I.I.I.I.I.I.I.].5X^.v.g.h.g.h.s.",
"z.G.g.h.g.v.5XJ.F.I.I.I.I.I.I.I.I.I.i.3 ,.X.b Y =.2.2.2.=.2.2.;.;.2.3.=.&.5.2.#.+ *.-.$.* K.P.P.I.I.I.I.I.I.I.G.J. Xb.g.g.g.c.n.",
"l.K.F.F.W.).Y.g.h.c.K.I.I.I.I.U.I.K.* #.O.:.! 1 =.-.;.;.2.+.2.;.;.;.2.3.3.2.+.P 1 -.;.-.K p.K.P.I.I.P.P.I.I.v.j.j.H.W.W.G.c.K.n.",
"B.^./.].3XqXv.m.j.h.K.K.G.K.K.K.K.B.; &.-.X.#.o *.-.:.-.:.:.+.:.:.+.+.=.;.-.2.p 2 *.X.X.#.0 U.P.K.K.K.K.K.K.j.k.v.v.6X0X]././.N.",
"XX7X7XdXfXsX7X7X|.g.g.g.g.g.g.g.J.z K ,.o.p $   Y +.;.+.+.+.:.O. .+.+.O.:.X.*.O X & E -.*.% 7XH.g.g.g.j.h.g.g.W.7X7XaXfXfX0X7X,X",
"l.^.^.(.(.(.^.^.'.4X4XH.J.4X4X4X Xc < 3 - x K.l 1 +.O...+.O.:.( ^ o.=.&.;.X.` , M.c.9 = d , v.!.2X2X4XY.k.4X2X].U.^.(.(.(.^.^.N.",
"l.I.I.I.P.P.I.I.E.{.!.W.R.W.!.W.R.g.c c x.P.P.d.; { X.X.O.O.` S G i *.=.X.=.Y 9 I.I.P.h.c a.g.T.!.W.!.R.R.W.{./.P.P.I.I.I.I.P.M.",
"l.I.I.I.P.P.I.I.I.K.j.|.[.j.j.g.j.j.j.F.P.P.P.P.9 E ..o.O.O.b S ' r { o.@.X.p r.I.P.P.P.F.j.g.j.g.j.g.!.2Xx.N.P.P.P.I.I.I.I.P.M.",
"z.I.I.I.I.I.I.I.I.U.6X/.I.I.I.I.I.I.I.I.I.I.I.I.u.p  .O.@.@.u A { o ` | @...& M.I.I.I.I.I.I.I.I.I.I.K.I.^.7X^.I.I.I.I.I.I.I.I.M.",
"z.I.I.I.I.I.I.I.I.I./.}. X XU.I.I.I.I.I.I.I.I.I.K.- @.|  .[ y E Q o { O. .Q * P.I.I.I.I.I.I.I.I.I.I.}.4X}./.I.I.I.I.I.I.I.I.I.M.",
"f.K.G.I.I.I.I.I.I.U./.}. X X'.E././.I.I.I.I.I.I.I.9 E @. .[ M V W o o. .@.p l P.I.I.I.I.I.I././././. X X X/.I.I.I.I.I.I.I.K.K.m.",
"y.k.k.I.I.U.U.U.U.U.5X/.I.I.5X5X6X6X(.U.U.E.U.I.I.n.> @. .[ s s S @ }  .{ o n.^.U.U.U.U.U./.6X6X7X7XI.I.U.6X/.U.U.U.I.U.I.k.j.s.",
"XX4X5X6X6X6X5X5X6X4XU.U.I.I.U.U.U.U. X6X6XsXyX6X6X6Xw E @.H V s A 1  .} E = 3X6X6XyXsX9X6X XU.U.U.U.I.I.I.U. X6X5X6X6X6X6X6X6X<X",
"V.R.W.W.W.!.9X}.{.'.I.I.I.I.I.I.I.I./.{.{.rX8X{.{.W.z i  .H N a M u } } i q W.{.].4XrX{.{.'.I.I.I.I.I.I.I.I.'.{.{.7X).W.W.W.!.C.",
"f.j.j.g.g.k.}./.U.K.I.I.I.I.I.I.I.I.I.I.I.I.I.I.G.J.OX; ' ~ B @ M M [ ^ . .Xn.K.K.I.I.I.I.I.I.I.I.I.I.I.I.I.K.I./.}.J.g.g.j.j.d.",
"f.I.I.g.g.j.j.4X!.j.I.I.I.I.I.I.I.I.I.I.I.I.I.G.j.}.W., E ] B # @ Q ] S $ C.4Xj.F.I.I.I.I.I.I.I.I.I.I.I.I.I.j.W.6Xk.g.g.j.K.K.N.",
"B.K.I.G.K.G.g.J.R.|.}.}.{.I.U.I.I.I.I./. XuXpXeX).T.v.j n ' J m a ' ( n 7 j.H.|.rXpXpX2X'.I.I.I.I.I.I.'. X X[.R.J.g.F.G.K.K.I.M.",
"l.P.I.I.P.K.c.h.J.).!.|.'.'.'.E.'.'.'.).!.eXeXwX).n.x.d.1 ] ( [ ' ( ) r x x.n.W.wXeXeX`.!.'.'.(.'.'.'.!.!.!.).H.g.v.K.I.I.I.I.M.",
"l.I.I.I.I.I.P.j.h.h.g.h.J.4X6X6X5X5X7X!.g.g.j.j.j.K.I.P.< { ( ^ ) ( ~ # u.P.P.j.g.g.g.g.R.7X5X4X4X5X6XY.g.g.j.j.j.K.I.I.I.I.I.M.",
"z.P.I.I.I.I.I.I.I.K.h.j.g.g.g.g.g.g.[.!.g.g.g.x.P.I.I.I.f E ( [ ( ) J O n.I.I.P.F.g.g.g.R.4Xg.g.g.g.g.g.g.g.K.I.I.I.I.I.I.I.I.M.",
"l.I.P.P.I.I.I.I.I.I.G.F.F.g.g.g.k.).R.R.!.!.L.G.I.I.I.I.j n ( ] ( ) D % M.P.I.I.F.K.!.!.W.T.).J.g.g.g.F.G.G.P.I.I.I.I.I.I.I.I.M.",
"z.I.I.P.I.I.I.I.I.I.(./.!.~.H.H.T. XH.L.}. X'.'././.(.(.p.i ) ] ( / D % (./.'././.'. X XW.G. XR.H.H.~.!././.I.I.I.I.I.I.I.I.I.M.",
"l.P.P.P.I.I.I.I.I.U.7X7XyXfX0X7X6XI.I.I.I.I.}.7X7X7X9X0XiXr / ^ ( ) S e yX7X7X7X9X4XI.I.I.I.I. X9X9XdXuX7X7X/.I.I.I.P.I.I.K.I.M.",
"OX0XaXaXyX5X5X5X4X X/.E.(.)./.U.U.I.I.I.I.I.U.^.^./.{.7XtXr G / / ) V q 9X X^.^.U.U.I.I.I.I.I.U.^.U.).W.^.^. X5X5X5X4X0XaXaXyX>X",
"Z._.rXrX0X6X].].].(.I.I.I.I.I.I.I.I.I.I.I.I.I.I.I.'.{.].|.> G ~ / H m q ].{.{.I.I.I.I.I.I.I.I.I.I.I.I.I.I.I.'.].].].5X9XrXrX1X~.",
"l.P.P.P.}.4X/.P.P.I.I.I.I.I.I.I.I.I.I.I.I.I.I.P./.4X].P.U., V ) / H y h P.(.5XE.U.I.I.I.I.I.I.I.I.I.I.I.I.I.I.I.I.U. X XI.P.K.n.",
"t.g.h.P.P.(.dX).I.P.I.I.I.I.I.I.I.I.I.P.I.I.I.,XdX_.P.P.I.0 V ~ / J y i.P.I.(.dXqXP.I.I.I.I.I.I.I.I.I.I.I.I.I.I./.sX>XI.P.h.h.s.",
"t.g.g.x.x.b.>X}.{.P.I.I.I.I.I.I.I.I.I.P.I.I.'.4X>X}.E.x.k.f s G H D r a.j.L.}.,X2X{.I.I.I.I.I.I.I.I.I.I.I.I.I.(.4X>XH.x.x.h.h.s.",
"t.g.g.g.J.Y.'.}.{.(.1X1X>X/./.].(.(./.{.1X(.{.].P.).!.Y.c   # F H D . 0 C.Y.!.I.(.{.(.1X}./.'./.(.(.(.}.1X1X].{.}.(.T.b.h.h.h.s.",
"y.h.j.j.|.6X6XU.(.0XsXdXaX7X6X6X7X7X7XuXdX0X(.K.K.j.y.q p Q # D Z N u I : k g.K.P./.7XdXpX7X6X7X7X7X7XpXdXdXrX].U.6X6X}.j.j.j.s.",
"OX4X4X4XY.k.k.j.j.b./.(./.^.^.^.U.U.U.}.0X/.F.h.j.x 1 Q } ^ n N B y V o.*.P 8 g.j.c.U.0X4XU.U.U.I.^.U./.(.(.b.j.j.k.k.H.5X4X4X<X",
"Z.(.(.'.L.G.g.g.h.j.x.G.P.I.I.I.I.I.'.(.Y.F.h.g.j p ] ( ( ' C N B N F ( ( } E , a.j.c.H.E.{.I.I.I.I.I.I.K.x.h.h.g.g.c.L.(.(.(.Q.",
"z.I.I.I.P.K.j.j.h.h.g.c.K.K.K.K.K.K.}.!.g.g.h.x 1 ` ( ( ] _ C Z Z C Z ] ] ] } b 8 g.g.g.T.4XK.K.K.K.K.K.F.g.g.g.g.j.K.I.I.I.I.n.",
"l.I.I.I.P.P.P.j.g.g.g.h.h.h.h.h.j.g.[.!.g.g.g.1 W ' ( / F C C v t N C C _ ^ ( { n c g.g.R.4Xg.g.h.h.h.h.h.h.g.h.h.K.I.I.I.I.I.M.",
"l.P.I.I.P.I.I.P.K.K.g.g.g.g.g.g.g.g.j.R.2Xj.f n S v r + & , 9 9 f f 8 = ; @ v S E - g.}.W.k.g.g.g.g.g.g.h.h.G.P.K.I.I.I.I.I.I.M.",
"l.P.I.I.I.I.I.I.P.P.x.h.g.g.g.g.g.g.j.H.}.T.p.o ; , j f.K.P.I.I.L.K.P.P.G.c 9 < > q Y.}.T.g.g.g.g.g.h.h.h.x.K.I.I.I.I.I.I.I.I.M.",
"m.U.I.U.^.I.I.I.I.I.I.F.h.h.h.h.h.j.h.c.U.4X6X+X3XE.U.U.^.I.U.I.U.U.U.U.U.U.U.6X<X6X6XE.F.j.h.h.g.g.g.g.x.I.I.I.P.P.I.^.I.U.U.N.",
"oX7X7X7X7X5XI.I.I.I.I.I.I.I.I.I.P.P.P.(.7XU.I.(.6X6X7X6X7X7X7X7X6X7X6X7X7X7X7X9X].P.I.6X{.P.P.P.I.I.I.I.I.I.I.I.P.P. X7X7X7X7X,X",
"B././././.(. X X}.{.I.I.I.I.I.I.^. X X{./.I.'.}./.'.E.'././.(./././././.(./././.{.{.I./.{. X X/.P.U.I.I.I.I.{. X X X]././././.Q.",
"p.l.l.l.z.B.XXXXXXOXB.l.B.l.l.l.B.oXoXD.l.z.D.S.l.l.z.z.l.l.l.l.l.l.l.l.l.l.l.z.D.S.l.l.Z.XXoXZ.l.m.l.l.l.B.S.XXXXXXB.l.l.l.l.u."
};
