/* XPM */
static char *Exit1743520334[] = {
/* columns rows colors chars-per-pixel */
"64 64 216 2 ",
"   c #060E3D",
".  c #140033",
"X  c #150638",
"o  c #19003F",
"O  c #06113D",
"+  c #09103F",
"@  c #190040",
"#  c #1E004E",
"$  c #1A1A4B",
"%  c #18174A",
"&  c #1E0151",
"*  c #1A0B54",
"=  c #031D43",
"-  c #25005F",
";  c #002446",
":  c #00274B",
">  c #01294B",
",  c #0B3A5B",
"<  c #0A3458",
"1  c #123E5D",
"2  c #29056D",
"3  c #0B3A65",
"4  c #0A3665",
"5  c #193C6D",
"6  c #0D2D63",
"7  c #114473",
"8  c #1C4A73",
"9  c #194E6E",
"0  c #224E73",
"q  c #225073",
"w  c #27687D",
"e  c #380090",
"r  c #4500AA",
"t  c #4200A6",
"y  c #195480",
"u  c #2E538D",
"i  c #34538C",
"p  c #37598F",
"a  c #27559D",
"s  c #3A5C91",
"d  c #365A91",
"f  c #1E628C",
"g  c #23658A",
"h  c #346394",
"j  c #3C6595",
"k  c #356897",
"l  c #2E799E",
"z  c #2D759D",
"x  c #337499",
"c  c #2A6899",
"v  c #2C4FA0",
"b  c #2968A6",
"n  c #2364A3",
"m  c #3577A2",
"M  c #2870A8",
"N  c #435E93",
"B  c #466A98",
"V  c #54749B",
"C  c #417BA3",
"Z  c #5178A2",
"A  c #4F00C3",
"S  c #5B03F4",
"D  c #5B07F3",
"F  c #5B1BF6",
"G  c #5912F6",
"H  c #5E00EE",
"J  c #6100F2",
"K  c #6F1DFF",
"L  c #701DFF",
"P  c #6000EE",
"I  c #5C23F5",
"U  c #5626F6",
"Y  c #5734F8",
"T  c #6D24FF",
"R  c #6A2BF6",
"E  c #643DFF",
"W  c #357FC5",
"Q  c #594DFB",
"!  c #5A56FF",
"~  c #575AFF",
"^  c #5654FC",
"/  c #4C4EE3",
"(  c #654AFF",
")  c #6752FF",
"_  c #5561FF",
"`  c #546CFF",
"'  c #5473FF",
"]  c #5E78FF",
"[  c #5778FF",
"{  c #4E6CFF",
"}  c #6564FF",
"|  c #646DFF",
" . c #607BFF",
".. c #474ED7",
"X. c #3789AF",
"o. c #3684AA",
"O. c #3787B1",
"+. c #3789B0",
"@. c #3B88B5",
"#. c #3D94BA",
"$. c #4389BA",
"%. c #5386B9",
"&. c #548BBC",
"*. c #4A92B7",
"=. c #5898B8",
"-. c #4D8DAF",
";. c #629CB8",
":. c #74A1B9",
">. c #3C84C6",
",. c #3885C4",
"<. c #3F90C2",
"1. c #4699C6",
"2. c #5B9DC5",
"3. c #5999C9",
"4. c #5797C6",
"5. c #428ED6",
"6. c #4997D7",
"7. c #4B9CDA",
"8. c #4795D5",
"9. c #539EDA",
"0. c #438EC0",
"q. c #629FCA",
"w. c #609CC5",
"e. c #46A3CA",
"r. c #49A5CC",
"t. c #5CA2C7",
"y. c #5DA6CA",
"u. c #4EA4DE",
"i. c #4CA9D7",
"p. c #54A3DE",
"a. c #5AAED8",
"s. c #5BA7D3",
"d. c #57B1DB",
"f. c #61A0C5",
"g. c #66A5CA",
"h. c #75A9CD",
"j. c #73A5CA",
"k. c #69ABD5",
"l. c #66B5D9",
"z. c #78B2D6",
"x. c #75B9D8",
"c. c #75AED4",
"v. c #5D8BFE",
"b. c #5787FD",
"n. c #5991FE",
"m. c #599EFF",
"M. c #5692FF",
"N. c #4496E3",
"B. c #6181FF",
"V. c #608DFF",
"C. c #6B88FF",
"Z. c #6592FF",
"A. c #7D99FF",
"S. c #4FA9E0",
"D. c #51ADE2",
"F. c #5CAAE2",
"G. c #53B5E5",
"H. c #54B8E7",
"J. c #55BAE8",
"K. c #5ABDEA",
"L. c #5BB6E7",
"P. c #59A6FF",
"I. c #54ADFF",
"U. c #5CADFF",
"Y. c #5BB0FF",
"T. c #60ADE4",
"R. c #6AB5E9",
"E. c #69B8E9",
"W. c #71BDED",
"Q. c #73BDE1",
"!. c #63AFFF",
"~. c #68B5FF",
"^. c #7EBDFF",
"/. c #62C1ED",
"(. c #6BC4EE",
"). c #75C2EF",
"_. c #7FC3E6",
"`. c #6BC6F0",
"'. c #6FC8F2",
"]. c #74CBF3",
"[. c #7ACEF5",
"{. c #79C5F7",
"}. c #7FD1F7",
"|. c #83B7D5",
" X c #86B9D6",
".X c #93A2FF",
"XX c #96AFFF",
"oX c #97B0FF",
"OX c #87A6FF",
"+X c #81C0D9",
"@X c #BED6DC",
"#X c #8CCAEA",
"$X c #87C8E8",
"%X c #80CEF4",
"&X c #83CAFF",
"*X c #8ECBFF",
"=X c #94CEFF",
"-X c #95C8FF",
";X c #84D4F9",
":X c #88D6FB",
">X c #8FDAFD",
",X c #8CD4F6",
"<X c #94D4F1",
"1X c #9ED3FF",
"2X c #9CDBFE",
"3X c #97D6FC",
"4X c #A4DCFF",
"5X c #A0D9F2",
"6X c #A5E1FD",
"7X c #BBE7FD",
"8X c #C0E5F7",
"9X c #C7EBFB",
"0X c #DFF3FC",
"qX c #EAF7FD",
"wX c #EBF8FE",
"eX c #F3FBFF",
/* pixels */
"=.a.a.a.d.l.$X#X#X#Xd.a.a.a.a.a.l.$X$X_.d.a.x.#Xd.a.a.a.a.a.a.a.a.a.d.a.a.a.a.a.l.$Xl.d.l.$X#XQ.d.d.a.a.a.a.x.#X#X#X_.a.a.a.a.a.",
"c.].`.`.].].].].].[.J.J.J.J.J.K.K.].].].].K.(.].].<X<X`.'.'.'.'.'.`.'.'.'.[.5X[.'.].K./.'.].].(.J.J.J.J.J.J.`.].].[.].'.'.'.'.`.",
"|.;X;X;X;X[.J.J.J.J.J.J.J.J.J.J.J.J.J./.;X(.(.].>X9X9X;X;X;X;X;X;X;X;X}.:X2X0X4X;X)./.'.].J.J.J.J.J.J.J.J.J.J.J.J.J./.;X;X;X;X;X",
"y.K.K.K.J.K.J.J.J.J.J.J.J.J.J.J.J.J.J.K.K.}.7XeX>X`.K.K.K.K.K.K.K.K.K.K.K.K.K.%X6XqX2X].K.K.J.J.J.J.J.J.J.J.J.J.J.J.K.K.K.K.K.K.",
"t.J.J.J.J.J.J.i.X.X.X.X.X.X.X.X.O.+.+.X.*.*.;.:.=.@.X.+.+.X.X.X.X.O.O.X.X.X.X.*.=.:.=.-.-.X.+.X.X.X.O.X.O.O.X.o.O.O.G.J.J.J.J.J.",
"4.D.D.H.J.J.J.1.> ; ; ; ; ; ; ; ; ; ; ; ; ; ; ; ; ; ; ; ; ; ; ; ; ; ; ; ; ; ; ; ; ; ; ; ; ; ; ; ; ; ; ; ; ; ; ; ; : e.J.J.G.S.S.",
"%.6.7.G.J.i.w x t.f.f.f.f.w.f.f.w.w.f.f.f.f.f.f.f.f.f.f.f.f.f.f.w.f.3.W 0.w.4.,.W W W W ,.W W W W W W W W W W W W W f g H.S.7.7.",
"%.6.6.7.7.#.; 0 2X4X1X1X1X1X1X4X1X4X2X1X1X1X1X1X1X1X1X1X1X1X1X1X1X1X-XP.!.3X*XP.U.P.P.U.P.I.P.U.U.P.U.P.!.P.P.U.U.U.3 , 7.7.8.8.",
"j.W.W.W.F.#.; 0 2X-X]  . .]  . .]  . . . . .] ]  . . .]  . . .]  . .] ' '  .] ' ` ' ' ` ' ' ` ' ' ' ' ' ` ' ' ' P.U.3 < W.W.W.W.",
" X:X:X;XR.$.; q 2X-X_ _ ~ _ _ _ _ _ _ _ _ ~ _ _ _ _ _ _ _ _ _ _ _ _ _ _ _ _ _ _ _ _ _ _ _ _ _ _ _ _ ~ _ _ _ _ _ m.U.3 , ;X:X:X:X",
"t.J.G.7.W.x.; 0 2XXXK K K K K K K K K K K K K K K K K K K K K K K K K K K K K K K K K K K K K K K K K K K K K K v.Y.3 1 6.S.J.J.",
"t.J.G.G.K.s.; 0 2XXXK K K K K K K K K K K K K K K K K K K K K L K K K K K K K K K K K K K K K K K K K K K K L T n.Y.3 1 D.G.J.J.",
"t.J.J.J.J.e.; 0 2XoXK K K K K K K K K K K K K K K K K K K K K K K K K K K K K K K K K K K K K K K K K K L L L T V.Y.3 , J.J.J.J.",
"t.J.J.J.J.e.; 8 {.A.K K K K K K K K L K K L K K K K K K K L K K K K K K L K K K K K L L K K L L K K K K L L L T V.Y.3 , J.J.J.J.",
"t.J.J.J.'.x.; 7 Y.v.L K K K K K L K L L L L L K K K K L L L L L L L L K L L L L L L L L L L L L L L K K T L L T V.Y.3 1 J.J.J.J.",
"z.[.[.[.;XQ.; q &XOXK K K K K K K ) B.B.] A..X.X.X.X.XC.B.B.B.B.B.B.B.B.B.B.B.B.B.B.B.B.B.B.v. . .v.B.B.B.B.B.B.P.Y.3 1 [.[.[.[.",
"|.;X;X;X;Xl.; 0 2XXXK K K K K K K } Y.U.P.^.1X1X4X1X1X!.P.P.I.U.U.P.P.P.U.P.P.P.P.P.P.U.P.P.U.Y.U.P.P.P.P.P.U.P.P.P.4 1 %X;X;X;X",
"y.K.K.K.K.r.; 8 ~.Z.K K K K K K T } U._ I R R R R R R K I I Y n.M.Y F R I I I R I I I I I I _ U._ I I I I I I I I I * $ K.K.K.K.",
"t.J.J.J.J.e.; 7 I.V.L K K K K K L | Y.^ J J P P J J J J P J G b.v.G J J S J J J S P J J P J ~ U.^ J J J J J J J J J & % J.J.J.J.",
"t.J.J.J.J.e.; 7 I.V.L K K K K K T } Y.Q J J J J J J J J P J J D D J J J J J J J J J J J J J J J J J J J J J J J J J # $ J.J.J.J.",
"t.G.J.J.J.e.; 7 I.v.K K K K K K L | U...r r r r r r r r r r r r r r r r r r r r r r r r r r r r r r r r r r r r r r # % J.J.J.G.",
"&.u.J.J.J.e.; 7 P.V.K K K K K L L | Y.a @ o @ @ @ @ @ @ @ @ @ @ o @ @ @ o o @ @ @ @ @ @ o o o o @ o o X o @ o o @ o . % J.J.H.u.",
"%.6.u.u.G.e.; 7 I.V.L K K L K K L } U.a   + = +   O + + = + =   + + = +   O     + + = +     9 h h h s B V V V V j h h x u.u.u.8.",
"%.6.6.8.u.1.; 7 I.V.L K K K K K L | Y.n ; ; ; = ; ; ; ; ; = ; = ; ; ; = ; ; ; ; ; ; ; = ; ; x J.J.J.J./.:X:X;X;X(.J.J.G.6.6.6.8.",
"%.6.6.6.6.>.; 7 I.V.L K K K L K L | Y.N.W ,.W 4.q.>.>.3.q.q.q.q.q.q.3.W >.q.3.W ,.W W W W W M g #.J.J.J.J.J.J.K.;X/.G.6.6.6.6.6.",
"t.D.6.6.8.#.; 7 I.V.L K K K K K L } U.!.U.U.U.=X4X!.!.=X4X4X4X4X4X4X1XU.~.4X=XU.U.U.U.U.U.U.b > m H.J.J.J.J.J.G.p.[.).7.6.6.6.L.",
"t.H.u.u.d.4.; 7 I.V.K K K K K K T ( ' ' [ [ ' ] B.[ ' ] B.B. .B. . . .[ [ B.] [ [ ' ' [ M.Y.b > l J.H.J.J.J.G.D.6.E.W.T.u.p.u.J.",
"g.K./.).<X+X; 7 I.V.L K K L K K K E ! ! ! ! ! ^ ^ ! ! ! ! ! ! ! ^ ! ! ! ! ! ! ^ ^ ! ~ ! ] Y.b > z G.G.G.G.G.u.7.p.p.R.6X).(.K./.",
"|.:X>XqXqX@X; 7 I.V.L K K K K K K T T T T T T T T T T T T T T T T T T T T T T T T T T T } Y.b > c 7.7.7.7.7.7.9.[.,X2XeXqX7X:X:X",
"h.'.(.,X<Xx.; 7 I.V.L K K K K L K K K K K K K K L T K L K K K K K K K K L L K K K K K K } Y.b > m ).).E.9.E.).).'.(.].<X<X%X(.(.",
"t.J.J.J.H.e.; 7 I.V.L K L K K K K K K K K K K K L K K K K K K K K K K K K K K K K K L L } Y.b > C ).).W.T.W.].].K.J.J.J.J.J.J.J.",
"t.J.J.J.H.e.; 7 I.V.K K K K K K K K K K K K K K K K K K K K K K K K K K K K K K L L L L } Y.b > c 7.9.T.%XT.d.K.J.J.J.J.J.J.J.J.",
"t.J.J.J.H.e.; 7 I.V.L K K K K K L K T T T T T T T T T T T T T T T T T T T T T T T T T T } Y.b > z G.G.H./.[.`.J.J.J.J.J.J.J.J.J.",
"t.J.J.J.J.e.; 7 I.V.L K K L K K K ( | | | | | | | | | | | | | | | | | | | | | | | | | | v.Y.b > l J./.`.'.].(.J.J.J.J.J.J.J.J.J.",
"2.H.H.J.J.e.; 7 I.v.L K K K K K L } U.Y.Y.Y.U.!.U.Y.U.U.Y.!.U.Y.Y.Y.Y.U.!.Y.Y.Y.Y.!.U.!.Y.U.b > m K.[.:X;X(.K.J.J.J.J.J.J.H.H.H.",
"%.6.7.H.J.e.; 7 I.V.L L K K K L T | U.^ S S D D D M.I.U S S S S S S S S S S S S S S S S S D e X Z >X`.J.K.}.'.J.J.J.J.J.J.S.8.8.",
"h.).).{.}.l.; 7 I.V.L K K K K K L | Y.Q J J J J J ' b.F J J J J J J J J S J J J J J J J J J e X B `.K.J.K./.].[.[.[.[.}.[.{.).).",
"h.W.).).W.s.; 7 I.V.L L K L K K L } U.^ J J J J J D D J J J J J J J J J J J J J J J J J J J e X j J.J.J.J.J.(.[.[.:X:XW.).).).).",
"%.7.7.7.6.0.; 7 I.V.L K K K K K K | U./ A A A A A A A A A A A A A A A A A A A A A A A A A A 2 o j J.J.J.J.J.J.J.J.;X{.7.6.8.8.6.",
"2.G.D.7.6.@.: 5 I.V.L K K K K L K | U.a . . . . . . . . . . . . . . . . . . . . . . . . . . . X j K.J.J.J.J.S.S.%XT.7.6.6.S.H.H.",
"t.J.G.D.u.0.; 7 I.V.L L K K K K K } U.a   +     + +         + +                   =           + 8 o.o.o.o.O.m m -.m 6.S.S.G.J.J.",
"t.J.J.J.J.e.; 7 I.V.L K K K K K L | U.n : : : : > > > : : : > > : > > > > : : : : : : = : : : : : : ; > > : > > : : <.J.J.J.J.J.",
"t.J.J.J.J.e.; 7 I.v.L K K L K K K | U.R.z.9.5.k.z.z.z.z.z.z.z.z.z.z.z.z.z.z.c.5.6.z.9.5.5.5.5.5.5.5.5.5.5.5.5.5.5.5.y q J.J.J.J.",
"t.J.J.J.J.e.; 7 I.V.L K K K K K K | U.&X4X{.U.3X4X4X4X4X4X4X4X4X4X4X4X4X4X4X3XY.~.4X&X!.Y.!.Y.Y.!.Y.!.Y.U.!.U.U.U.U.3 , J.J.J.J.",
"t.J.J.J.J.e.; 7 I.V.L K K K K K L Q ` ` ' ` ` ` ' ` ' ' ` ' ' ` ' ` ' ` ' ` ` ` ` ' ` ` ` { ` { { { ` { { ` { { P.Y.3 , J.J.J.J.",
"t.J.J.J.J.e.; 7 I.V.L K K K K L L E ~ ~ ! ! ~ ! ~ ~ ! ! ! ~ ! ~ ~ ! ~ ~ ! ! ~ ~ ! ! ~ ~ ~ ~ ~ ~ ! ~ ~ ~ ~ ~ ~ ~ m.Y.3 , J.J.J.J.",
"t.J.H.J.G.e.; 7 I.V.L K L K K K L L T T T T T T T T T T T T T T T T T T T T T T T T T T T T T T T T T T T T T T V.U.3 , J.J.J.J.",
"z.,X8X8X2Xl.: 7 I.V.L K K K K K K L L L L L L T L L L L L T K K T L L L L T L L L L L L K K K K K K K K K K T T V.U.3 1 8X8X7X].",
"|.6XqXqX7Xx.; 7 I.V.L L L K K K K K K K K K K K K K K K K K K K K K K K K K K K K K K K K K K K K K K K K K K T V.U.3 9 qXqXqX,X",
"t.H.J.H.'.x.; 7 I.V.L L K L K K K K K K K K K K K K K K K K K K K K K K K K K K K K K K K K K K K K K K K K L T V.Y.3 1 G.G.J.J.",
"&.7.i.G.K.s.; 7 I.v.T T K K K K K K K L K K K K T K K K K K K L K K K K K K K T K K K K K K K K K K K K T K K T V.Y.3 , J.D.7.7.",
"%.6.7.u.D.1.; 7 I.P. .B.B. . .v.B.B.B.B.B.B.v. .B. . .v.B.B.B.B. .v.B. . .v.B.B.B.B.B.B.] v.B.B.v.B.B.B. .B.B.B.P.Y.3 , D.u.6.6.",
"%.6.6.6.9.1.= 5 M.n.n.n.n.n.n.n.n.n.n.n.n.n.n.n.n.n.n.n.n.n.n.n.n.U.U.v.v.n.n.n.n.n.n.n.n.M.n.n.v.n.n.n.n.n.n.n.n.n.6 < 6.6.6.6.",
"%.6.6.6.R.c.  - F F F F F F F F F F F F F F F F F F F F F F F F Y P.M.F F F F F F F F F F F F F F F F F F F F F F F & $ 6.6.6.6.",
"h.).).).R.4.. - H P J J J J S J J J J S J J J J J J J J J J J J F [ ` S J J J J J J J J J J J J S J J J J J J J J J & % ).).).).",
"|.;X;X;XR.%.. - P J J J J J J J J J J J J J J S J J J J J J J S J J J P J J J J J J J J J J J J P J J J J J J J J J # % ;X;X;X;X",
"y.K.K.K.L.1.. # t t r t t r r r r t r t r t r r t r t r r t t t r r r r t t t r r r r t t t t r t r r r t t r t r t @ % J.K.K.K.",
"t.J.J.J.J.1.. . . . . . . . . . . . . . . . . . . . . . . . . . . . . . . . . . . . . . . . . . . . . . . . . . . . . % J.J.J.J.",
"t.J.J.J.J.i.j k h h u u i i u i p u d s B s s h h j j k k k k j j k k j j k k h h s i j B N p u u u i i u u p s h h k m J.J.J.J.",
"t.J.J.J.J.J.J.J.J.J.6.6.6.6.6.6.6.6.8.F.:XT.F.K.K.J.J.J.J.J.J.J.J.J.J.J.J.J.J.K.K.L.S.(.{.6.6.6.6.6.6.6.6.7.D.J.J.J.J.J.J.J.J.J.",
"t.H.H.J.J.J.J.J.J.J.K.u.6.6.6.6.8.8.7.S.J.}.>X>X>X/.J.J.K.J.J.J.J.J.H.K.J.J.J.%X>X>X>X].G.8.6.6.6.6.6.6.7.G.J.J.J.J.J.J.J.J.J.J.",
"z.[.[.[.[.'.J.J.J.J.H.G.D.D.D.D.G.S.S.L.[.'.`.`.>X}.[.[.[.[.[.[.[.[.[.[.[.[.[.:X;X`.`.'.`.G.S.S.D.D.D.D.D.H.J.J.J.J.K.[.[.[.[.[.",
"|.,X;X;X;X[././././.J.J.J.J.J.J.K././.(.;X/.K./.;X;X:X;X;X;X;X;X;X;X;X;X;X;X;X;X}.E.J.`.[././.K.J.J.J.J.J.J.K././.K.`.;X;X:X;X;X",
"t.J.J.J.K./.:X>X>X:XJ.J.J.J.J.J.K.:X:X}.J.J.].>XJ.J.J.J.J.J.J.J.J.J.H.H.K.J.J.K./.:XK.J./.>X>X].J.J.J.J.J.J.].>X>X>X;XJ.J.J.J.J."
};
