/* XPM */
static char *SeaTile1743520334[] = {
/* columns rows colors chars-per-pixel */
"64 64 133 2 ",
"   c #5087BC",
".  c #518ABE",
"X  c #5E94B4",
"o  c #4B8FCB",
"O  c #568DC0",
"+  c #4C93CC",
"@  c #569AC5",
"#  c #5A9EC4",
"$  c #5296CF",
"%  c #4795D6",
"&  c #4896D6",
"*  c #4998D7",
"=  c #4B9CD9",
"-  c #519EDA",
";  c #5AA4CB",
":  c #4CA3DC",
">  c #4DA9DF",
",  c #52A5D6",
"<  c #58A8D0",
"1  c #54A3DD",
"2  c #59A5DE",
"3  c #54ABDB",
"4  c #5DAADF",
"5  c #56B0DB",
"6  c #59B2DC",
"7  c #6CA2CB",
"8  c #64AACE",
"9  c #68ACCF",
"0  c #71A7CE",
"q  c #6BAED1",
"w  c #6AADDC",
"e  c #72B2D3",
"r  c #7AB6D6",
"t  c #7EB8D7",
"y  c #7FBAD8",
"u  c #4FABE1",
"i  c #5AA7E0",
"p  c #51ADE1",
"a  c #5CAAE1",
"s  c #52B4E5",
"d  c #5CB4E6",
"f  c #54B9E7",
"g  c #59BAE7",
"h  c #55BAE8",
"j  c #5BBDE9",
"k  c #61AEE3",
"l  c #64B3E5",
"z  c #68B4E6",
"x  c #64B8E0",
"c  c #6BBCE3",
"v  c #63B6E8",
"b  c #69B6E8",
"n  c #62BDEA",
"m  c #6DBBEB",
"M  c #70B5E6",
"N  c #7AB3E2",
"B  c #71BFE5",
"V  c #78B9E7",
"C  c #72BEEC",
"Z  c #5FC0EB",
"A  c #64C2ED",
"S  c #6AC4EE",
"D  c #75C1E7",
"F  c #78C3E7",
"G  c #74C5ED",
"H  c #7BC5EA",
"J  c #75C8EE",
"K  c #7DCAED",
"L  c #6DC7F0",
"P  c #6EC8F1",
"I  c #74C6F1",
"U  c #7AC6F1",
"Y  c #72CAF2",
"T  c #7BCDF4",
"R  c #7ED0F6",
"E  c #83BBD9",
"W  c #89BEDC",
"Q  c #82C3EB",
"!  c #8DC5EC",
"~  c #83CCED",
"^  c #8BCEEE",
"/  c #93C4E9",
"(  c #9BCCEE",
")  c #8DD1EF",
"_  c #92D2EF",
"`  c #82CEF5",
"'  c #8DCDF3",
"]  c #90CFF3",
"[  c #82D1F6",
"{  c #8BD3F5",
"}  c #85D4F9",
"|  c #89D6FA",
" . c #8DD8FB",
".. c #93D6F5",
"X. c #9BD5F4",
"o. c #92D8F7",
"O. c #9DD9F5",
"+. c #95D7F8",
"@. c #93DAFB",
"#. c #9CDCFA",
"$. c #A2CDED",
"%. c #ADD1EE",
"&. c #B3D3EE",
"*. c #A4D6F4",
"=. c #A2DAF5",
"-. c #ADDDF4",
";. c #A1DEF9",
":. c #A8DFF9",
">. c #B0DEF6",
",. c #ADE0F7",
"<. c #A5E0FC",
"1. c #AAE0F9",
"2. c #B4E1F6",
"3. c #BBE2F5",
"4. c #B4E3F9",
"5. c #BEE7FA",
"6. c #BEEAFE",
"7. c #C4DFF4",
"8. c #C9E1F4",
"9. c #C5E8F7",
"0. c #C2E7F8",
"q. c #C4EAFB",
"w. c #CBEBFA",
"e. c #D1E5F5",
"r. c #D4EEFA",
"t. c #DAEFF9",
"y. c #D7F0FB",
"u. c #DCF1FB",
"i. c #E1EEF8",
"p. c #E3F4FC",
"a. c #EBF6FC",
"s. c #EFF8FC",
"d. c #F0F9FD",
/* pixels */
"# 5 5 5 5 x ^ ^ ^ Q 6 5 6 6 6 5 x ^ ^ F 5 5 F K 6 5 5 5 5 5 5 5 6 5 5 5 5 6 5 5 F H 6 5 D ^ ) c 5 5 6 5 5 6 Q ) ) ^ c 5 5 5 5 < ",
"e Y Y P Y Y Y Y Y J j h h h h h g P Y Y S j A Y Y X.{ Y P P P Y P P P P P } O.Y Y S h S Y Y Y j f h h h f h S Y Y J Y P P P P D ",
"E R [ } } Y h f f f f h f f f h f h h A R A S J o.r.2.[ R } R } } R } R } ,.y.@.T S A R S f h f h h h h h f f f f f Y } } } } ~ ",
"< j j j j h h h h h h h h h h h h h h h A [ q.r. .S j j j j j j j j j j h j S | w.w.| A h h h h h h h h h h h h h f h j h j h 6 ",
"; h f f f f f h h h h h h h h h h h s A T S T ~ S j f f f f h h h f h h f f h A J ~ S Y A f f f h h h h h h h h h f f f f f f 5 ",
"@ u u f h h h h h h h h h h h h h h A P Y j s h f f h h h h s u u s h h h h h h f f j Y Y A h f h h h h h h h h h f f f f p p , ",
". & = s s f f h h h h h h h h h h h R T h f h h h h h f s f u & % > f s f h h h h h f f Y } j f h h h h h h h h h f f f s = & + ",
"  & & * = : f f h h h h h h h h h h R Y f h h h f f h s : & & & & & * = 5 h h f f h f f Y } j h h h h h h h h h f f > * * & & + ",
"0 C m C 2 = > s h f f f f f f f h h A Y P g h h f u : u m m Q %.%.! m m i > u s h h h L Y A h h f f f h f h f f f : & - C C C M ",
"y [ [ ` b 2 i p h A A Z S K K K J A A Y | S g f p = - k U K O.r.y.=.T T k - & p s j A | T A A G K ~ K S n A n j p i i l U [ [ Q ",
"; h f = m | [ i l | | | 1.a.a.a.y. .| | | | S p & & l T 1 = > g j 2 * - U m * = p A } | | |  .w.s.a.s.4.| | } m 3 ` | I : s h 6 ",
"; h f p g n i G m 2 2 i l K ~ ~ U A A v i i G S * C m i 3 s s f h f p p i b G = m I i i d A A G ~ K K z i i i b I a v j s s h 6 ",
"; h h h f f l m a % % % = > > > u u u = % % k b b I n u f f Z f h h h f > d Y l m l & % = u u u > > > = % % % i C l f f h h h 5 ",
"; h h h Z A R i = = & & & & % & & & % % & & % i [ A g f f f f f h h h f f j A R k % & & & & & & & & & & & & = * 3 T L j s h h 5 ",
"; h h f Y R Z f s p = & & & & & & * & & & & * u j R I f f f f f h h h h f S } Z > & & & & & & & & & & & % = u f s j Y R h f h 5 ",
"r T T Y | | Y T R P p > : & & & % & & = u u u u j R P s f f f f s f f f f A } j p u u p = & & & & % % : u p L T T T | | T R T F ",
"r R T R R T R R R Y L A n a a a i > : > h f Z A S <.O.) ) ~ ^ ^ ) ) ) ) ) O.<.P A Z h h u : : i a a a n A S Y R R R R R R R R H ",
"< h h h h h h h h Z } | | | | | T j h h g j Y |  .y.a.a.a.a.a.a.p.a.p.p.a.s.u.o.| T j j h h h T | | | | | } A h h h h h h h h 5 ",
"; j h h h h h h f f Z Z Z Z Z j A R A A } [ P Z Z S G J J G G G F F J G G J G A Z L [ [ S j R S Z Z j Z Z Z h f h h f f f h h 5 ",
"; h h h h h h h f f f f j f f f j P Y Y Y P A f f f f f f f f f h h f f f f s h f Z Y Y Y Y P j f f f f f h h h h h h h h h h 5 ",
"# s h h h h h h f f f f h Z n A Z A [ T f f f f f f h f p s p s s s s s f h h f f h f f I | A Z Z Z A j f f h f h h h f h h s 3 ",
"O : h s h h h f f j j f A | | | | |  .Y h g h h j h f s = = & = * * * * s h h h h h h h Y  .| | | | | S f f h h f h h f f s > + ",
"  * = : u h f f A [ R R Y S A A A A A P { 9.O.o.0.w : = & & & & % * * % = = w 3.O.o.9.{ Y A A A A A A Y R R R S f f f s : : = o ",
"  % & & > u h A Y Y T T L h f f f j f Z ` 2.+.{ %.V 1 & & & & & % % % * & - z %...{ 2.{ A h g f f f h S R Y T Y A h 5 : & & & o ",
"O % % % & : j T I h h h f f h h f h f f h s f > = H m = - = = = * * = - - l T - 3 s s f h s h h h h h h h h f S T A 3 % % % & & ",
"; u * % & 2 T k p s f f h h h h h f f f s = = = & - b } [ A s s s f j [ [ C - & = = = s h h f f h h h s f f f p a T a & & & 1 3 ",
"; s u u l m l = = > s j h h h h h h L Y T %.&.&.%.Q ` @.@.1.=.Y Y O.,.@. .[ V &.&.&.&.` Y Y h f h h h h h f > = * k m b > > s 5 ",
"9 A A J #.X.a i : * u p s p p p s A I T ' 7.e.e.w.o.R T [ 4.3.` R ,.5.[ R R { w.e.e.7.' T U A f p p s p p p = - a i ] ;.~ S A x ",
"E |  .u.s.y.| | m = * * * - = * 2 ` k & * - - 1 g j h j f j j g h g g h j h j j i = - = * 1 [ a = = = * = * * z | } w.d.p.#.| ~ ",
"9 A A J K J A Z G T T i i U ` U G a * % & p p s f h f f f f f f h h h f f f f f s p p = % = i C T T ~ k 1 U ` I A A J J K A A x ",
"; f f f h f f f n Y C b b C C m z & & = > f f f h h h h f h h h h h h h h h f f h h f p = & & k C m m b b m J A f f f f f f f 5 ",
"; h h h h h h f f s 1 I I * = = = = = > h f f j h h h h h h h h h h h h h h h h h h f h p * = = = = = m U 1 f f f h h h f h f 5 ",
"; h h h h h h h h j R P j h s s s f s f h h h h h h h h h h h h h h h h h h h h h h h f f s f s f f f f S [ A f f f f h h h f 5 ",
"; h h h h h h h f j A Y T Y Z h f f f h h h h h h h h h h h h h h h h h h h h h h h h h h h h h f h Y T Y S j f f j f f h h h 5 ",
"@ u p h f f h f f j A Y T R L S A S j f f h h h f f f f f h s u u s h h f f h s f f h h f g A A S S T T Y A j f f f f f f p u > ",
"O = - f j h j j j Z [ A f j R | | | S g g n j j h j j j h j d = = s g j g j j g g j A j g A } | | [ j h A [ A j j j j j h 1 = $ ",
"t [ [ } } } [ | } T A j f h j j Z Z Y | o.r.:.[ } [ } } } } } ` ` ` } } } [ | } [ #.y.@.} T Z Z A j h h h n T | [ | } } } [ ` Q ",
"7 b b z b C  .Y P L f f h h f f f f A P Y O.` I L m ..q.@.G z b b b C @.6.=.m S P R =.K P L h s f f f h f h S S Y | I b b b b w ",
"O = = % & 1 U S g s f f h h h h h f j f f s f f s i / 8.` i & = = * - ~ >.$.2 p s h f f h h h h h h h h f h s f A U 3 & * * : + ",
"; f s = & = = U m = f h h h h h h h h h j g g s = U b - = & : h s u * - - z U 3 p j h h h f h h h h f h h h : z T 1 * & * p f 5 ",
"; h f s u u % i m U R R Y f h s f f s A | q.r.3.U k 1 & u p s s h s p p = = a U >.r.w...S h h h f f f L [ T T m i = > p p s h 6 ",
"; h h h h s u % 2 C C C S P I L L L L I V %.&.$.C 3 : u h h h h h h h f u : p m ( &.&.H C L L L L L L G C C G a & : s h h h h 6 ",
"; f h h f s s u & = & & i ` | [ [ }  .G & & = & = s h f h h h h h h h f h h s = & & & % b @.[ } [ [ } k & & * = = s h h h h h 5 ",
"; f h h h h s s s s & = * - - - = 1 U C & = & = s f h f h h h h h h h h h h h s : & & & b [ 1 - - - - * & = u s f h h h h f h 5 ",
"; h h h h h h h h f > u : % % % = m z z C C d p f f f f f h f f f s h h f f h f p d C G b l C 1 & % % = u u f h h h h h h f h 5 ",
"; h h h f h f f f h A A m N k a z T a d [ R Y A A A A S ~ ~ ~ ` ` ` ~ ~ S A A A A L R R n i U b i k N C A A j f f h h h f f h 5 ",
"; j n j j h h h j Z [ | ;.p.#.} R j f h h h Y | | | | #.p.a.a.a.a.a.s.a.<.| | | | T h h f f h T } +.y.4.| } A h g g h g j A j 5 ",
"E ;.t.u.<.R } } } T A n S J A A j h h h h f j A A A Y @.<.{ H G F H ` <.@.R Z A A j h f f h f j n A J S Z Z R } [ } } O.t.y.1.~ ",
"e } -.-.O.| Y Y Y P h f f f f f f f h h h h h h f S P J I j h h f f j P Y Y S h f f f h h h f f h h f f f f A Y Y Y | #.-.,.{ D ",
"# s s s P [ G j f f f h h h h h h h h h h h h j J ` L f f f h h h h f h f S [ J Z f h h h h h h h h h h h f h h g S T Y f p s , ",
"  * = s f K u.U f h j f h h f h h h h h h f f K u.K h f f f f f s h s h f h G y.) h f f h h f h h h h h h h h f S t.) h f = = + ",
"  * * = : 4 ` } A f f f f f f f f h h h f f L T ) T n : : : = - : : : : = d T ^ [ J f f f f f f f f f f f f f A [ ^ x = : & & + ",
"  * & & 1 z m Y Y G ) _ K L S S L S S T ' L Y P h m m a * & * * % & % & i b C j S Y S ) T S S S S S S ~ ..) J Y Y S v 2 % & & o ",
"O = = - m } ` n A +.u.s.w.| } | | | [ 1.p.@.L s s = l U 1 - - - 1 - - - G C * s s A | u.5.| | | | | | 5.a.p.O.S g ` } C = - - $ ",
"E R [ [ z - - = - 2 A S A Z Z Z j n j Y +.A p = = & = 4 ` ` *.i.i.-.` ` a = & = = > A o.R j j j j j Z A S D 2 : = 1 - l ` ` [ Q ",
"e P P P d u & & & = : s h h f f h h L G k p = & & & : p A I T =.=.` I L d = & % % = > d m I j h f h h h s : * & & & : d S P P B ",
"; f f h f s = % % & & > s s 5 p s s T C & & & & & = > f f f f f s f f f h u = * & & & % b [ f p p s s p u & & & & = p h h h s 6 ",
"; f h h f f f : & = % & & & * * & = U C * & & & * s f f f f f f h h h h h f s = * * & = b T - & * * & & & & & * = f f h h h h 6 ",
"; f h h h h h s u p = % & & & & % & 3 b U = u p s f j f h h f f h h h h h h h p p > = C b 1 & & * * & & & & > p s f h h h f h 5 ",
"; f f f f f h h h s > = % & & & % % % i I b m L S h f f f f f f f f f f f f j S I A b Y l & & & % * % & = > s j h h f f f f h 5 ",
"; Z Z Z Z h h h f h h : * * = = = = = > Z R } | | S Z Z Z Z Z Z Z Z Z Z Z Z Z | | } [ A p = = = = = = = : f f f f f j Z j j Z 6 ",
"E | } } } R h h h h h h s h s s f h s A R Z Z S | | } | } } } } } } } } } } | | P j Z R S f s s s s s s f h f f h h Y | | } | ~ ",
"9 S S S S P T R Y Y h j h j h h Z Y T Y S j S Y S A S S A S S S A S S S S A S S Y P j A Y R R Z h h f f j h P T T T P S S A L c ",
"X ; ; < ; 8 E W W E 8 ; ; ; ; < 9 W W e ; ; r y < ; ; ; ; < ; ; ; ; ; ; ; ; ; < r y ; ; q W W q ; ; < < ; < y W W W 9 ; ; ; ; # "
};
