/* XPM */
static char *Dolphin_Bas1743520333[] = {
/* columns rows colors chars-per-pixel */
"64 64 229 2 ",
"   c #500F38",
".  c #42213F",
"X  c #3C3652",
"o  c #5A1847",
"O  c #631A4A",
"+  c #671B56",
"@  c #771350",
"#  c #492649",
"$  c #58264B",
"%  c #582A56",
"&  c #473858",
"*  c #59355A",
"=  c #4E2D52",
"-  c #662759",
";  c #67345E",
":  c #732656",
">  c #4A3E67",
",  c #772A69",
"<  c #7A366B",
"1  c #7C3871",
"2  c #6D3D6A",
"3  c #7E1764",
"4  c #3B537B",
"5  c #46405D",
"6  c #48496C",
"7  c #52466B",
"8  c #485679",
"9  c #53567B",
"0  c #524971",
"q  c #654772",
"w  c #7C495C",
"e  c #851357",
"r  c #941270",
"t  c #AE1274",
"y  c #8A266D",
"u  c #972679",
"i  c #8B3A7A",
"p  c #883679",
"a  c #8F2D74",
"s  c #AA237B",
"d  c #874476",
"f  c #3E5781",
"g  c #6A5F80",
"h  c #496687",
"j  c #4A6D95",
"k  c #526C92",
"l  c #657594",
"z  c #537CA5",
"x  c #4A75A4",
"c  c #B51790",
"v  c #993785",
"b  c #A62785",
"n  c #BA2B96",
"m  c #AE368C",
"M  c #D11095",
"N  c #EC149E",
"B  c #CB2895",
"V  c #D50DAA",
"C  c #E910AB",
"Z  c #C93AA3",
"A  c #D330AD",
"S  c #E728A5",
"D  c #E829B5",
"F  c #EA37BC",
"G  c #F633BE",
"H  c #F328B6",
"J  c #954587",
"K  c #96498E",
"L  c #A54A99",
"P  c #AB5199",
"I  c #B74CA6",
"U  c #AF55AB",
"Y  c #B967B0",
"T  c #975C91",
"R  c #C84AAD",
"E  c #D648B7",
"W  c #D051B8",
"Q  c #C668BD",
"!  c #F92EC2",
"~  c #EC3BC5",
"^  c #F432C4",
"/  c #F33CCB",
"(  c #F736C8",
")  c #EC2BC0",
"_  c #DB52C4",
"`  c #EB48CA",
"'  c #F343CC",
"]  c #F546C9",
"[  c #E952CB",
"{  c #EE4CD2",
"}  c #EF4DD9",
"|  c #F34CD3",
" . c #EE56DA",
".. c #ED5CDC",
"X. c #EC55D3",
"o. c #F254DA",
"O. c #F25BDD",
"+. c #F255D6",
"@. c #D566CA",
"#. c #D976D5",
"$. c #D26BCA",
"%. c #ED63DD",
"&. c #E766D8",
"*. c #F264DD",
"=. c #EE5AE1",
"-. c #F25CE1",
";. c #F459E2",
":. c #DE6DE1",
">. c #EE65E4",
",. c #ED6FEC",
"<. c #ED6AE6",
"1. c #F262E4",
"2. c #F36BE5",
"3. c #F26CEB",
"4. c #F468EA",
"5. c #EE73EB",
"6. c #E876E5",
"7. c #F273EC",
"8. c #F47CED",
"9. c #F076E6",
"0. c #F57EF2",
"q. c #F87FF4",
"w. c #F277F0",
"e. c #5186BA",
"r. c #558AB7",
"t. c #5797BD",
"y. c #528BB1",
"u. c #6587AA",
"i. c #6B8BAB",
"p. c #4C8FCB",
"a. c #4A89C5",
"s. c #4D93CC",
"d. c #5598C6",
"f. c #4997D7",
"g. c #4998D7",
"h. c #4B9BD9",
"j. c #519FDB",
"k. c #559DD7",
"l. c #5CA3C8",
"z. c #59A1C9",
"x. c #4DA3DD",
"c. c #4FA8DF",
"v. c #54A3DD",
"b. c #58A5DF",
"n. c #55ADDB",
"m. c #58AAD8",
"M. c #57B0DA",
"N. c #5AB1DB",
"B. c #62A6CB",
"V. c #6AA7CC",
"C. c #74ADCF",
"Z. c #6CACDB",
"A. c #71AED5",
"S. c #66B4DE",
"D. c #79B4D4",
"F. c #4FAAE0",
"G. c #50ACE1",
"H. c #5CABE2",
"J. c #5AA7E0",
"K. c #53B4E5",
"L. c #5BB5E6",
"P. c #54B9E7",
"I. c #55BAE8",
"U. c #5BBDEA",
"Y. c #61AEE4",
"T. c #64B2E6",
"R. c #6AB6E9",
"E. c #63BDEA",
"W. c #6CBAEA",
"Q. c #68B9E1",
"!. c #72BEED",
"~. c #75BAE3",
"^. c #6796C2",
"/. c #5FC0EC",
"(. c #64C2ED",
"). c #6AC4EE",
"_. c #72C3ED",
"`. c #7BC9ED",
"'. c #7AC4E8",
"]. c #6CC6F0",
"[. c #6FC9F1",
"{. c #7AC6F2",
"}. c #73CAF2",
"|. c #7ACDF4",
" X c #74C5F1",
".X c #7ED0F6",
"XX c #87BBD8",
"oX c #89BCD9",
"OX c #83B7D6",
"+X c #DD84E4",
"@X c #EC88E8",
"#X c #F483EE",
"$X c #F489EE",
"%X c #F986EF",
"&X c #F583F2",
"*X c #F885F2",
"=X c #F489F1",
"-X c #F98BF2",
";X c #F18DEC",
":X c #84CBED",
">X c #8BCDED",
",X c #83C6E9",
"<X c #8CD0EF",
"1X c #82CEF5",
"2X c #88CBF1",
"3X c #84D1F7",
"4X c #85D3F9",
"5X c #89D6FB",
"6X c #8DD9FC",
"7X c #8AD2F3",
"8X c #94DBFC",
"9X c #9ADCFB",
"0X c #99D8F6",
"qX c #94CBE8",
"wX c #A5DCF6",
"eX c #BDDAF1",
"rX c #ABD0ED",
"tX c #ACE2FB",
"yX c #B7E6FB",
"uX c #C8D9EA",
"iX c #E7DCE0",
"pX c #C9EAFA",
"aX c #DBEBF8",
"sX c #DCF2FB",
"dX c #D6F1FD",
"fX c #E8F7FD",
"gX c #F3FAFE",
"hX c #FBFDFE",
"jX c #D6D3D8",
/* pixels */
"t.M.M.M.M.N.<X>X>X:XN.N.N.N.N.N.N.<X<X'.M.M.'.'.M.M.M.M.n.M.M.n.M.M.M.M.M.M.M.M.'.'.N.M.~.>X>XQ.N.N.N.N.N.N.`.>X>X>XQ.M.M.M.M.l.",
"C.}.[.[.[.[.|.}.}.}.I.I.I.I.I.I./.}.}.}.[.P.].}.}.0X<X[.[.}.}.[.[.[.[.[.[.3X0X}. X].I.].[.}.}./.I.I.I.I.I.I.[.}.}.}.}._.[.[.[.).",
"oX5X5X5X5X.XP.I.P.I.I.I.I.I.I.I.I.I.I.].5X/.E.}.6XsXyX5X5X5X5X5X5X5X5X5X5XtXfX8X}.U.U.4X[.I.I.I.I.I.I.I.I.I.I.I.I.P.|.6X5X6X5X:X",
"l.I.I.I.I.I.I.I.P.I.I.I.I.I.I.I.I.I.I.I.P.5XpXuX6X(.P.P.I.I.I.I.I.I.I.I.I.P.U.,XuXsX6XU.I.I.I.I.I.I.I.I.I.I.I.I.I.I.I.I.P.I.P.M.",
"l.I.I.I.I.I.I.I.I.I.I.I.I.I.I.I.P.I.P.(.4X(.9 , ; 9 z n.I.I.L.L.P.P.I.G.d.k > + $ i.(..X].I.I.I.I.I.I.I.I.I.I.I.I.I.I.I.P.P.P.N.",
"d.K.G.P.I.I.I.I.I.I.I.I.I.I.I.I.P.P.(.[..X/.% Z A b 3 % % 8 f f 8 8 > = + e n A b j I.|.}./.I.I.I.I.I.I.I.I.I.I.I.I.I.P.P.K.G.m.",
"e.g.g.K.P.K.P.I.I.I.I.I.I.I.I.I.P.I..X}.P.P.r.v ` / / ) V V c t c V V D ) ( / _ < M.I.I.[.4XI.I.I.I.I.I.I.I.I.I.I.I.P.P.K.g.g.p.",
"e.g.f.g.g.x.I.I.I.I.I.I.I.I.I.I.P.I..X.XP.P.P.9 v ` ' / ' D V C V V / { / / _ , y.I.I.I.[.4XI.I.I.I.I.I.I.I.I.I.I.I.x.g.g.f.f.p.",
"V.W.R.R.v.g.v.P.I.I.I.I.I.I.I.I.I.I.].}.[.I.I.n.0 R | ' / C M N V V | ` ' ] i z P.I.I.[.}.].I.I.I.I.I.I.I.I.I.I.P.c.h.j.R.R.R.Z.",
"OX3X3X1XT.b.b.K.P.(.(.E.(.`.`.`._.E.(.}.6X].U.I.G.6 L O.X.B t N M t ` { W 1 x G.P.L.(.5X|.(./._.`.`.`.)./.(.E.U.K.v.b.Y.1X3X4X:X",
"d.U.P.h. X6X5Xv.Y.6X6X6XtXhXhXhXfX6X6X6X6X6X].G.f.f.k ; P y M H N @ W p q ^.g.g.G.E.6X6X6X6X6XdXhXhXhXyX5X6X6XR.x.5X6X{.g.K.I.M.",
"l.I.P.K.U.U.v.|.!.v.v.j.m._.).).).U.U.L.v.j.!._.f.{.R.k.9   S ! S @ X z b.T.{.h.W. Xj.J.H.U.U.).).)._.H.j.J.v.W.{.b.L.U.K.I.I.M.",
"l.I.I.I.I.I.T.W.T.f.f.f.h.G.G.G.G.G.G.x.f.f.T.W.T. XE.x.z.@ S G F t k P.n.L.}.T.W.R.f.f.x.G.F.F.n.G.G.h.f.f.f.H._.T.I.I.I.I.I.M.",
"l.I.I.I.I.(.5Xv.g.h.g.g.g.f.f.f.f.f.f.f.f.f.f.J.4X(.U.P.y.t H ! ! B 7 I.P.P./.4XT.f.f.g.f.f.f.f.f.f.f.g.f.f.g.g.x.3X).I.I.I.I.M.",
"z.I.I.I.|.4XI.P.P.P.g.g.f.f.f.f.f.g.g.g.f.f.f.x.I..X}.P.h t H ~ ( A 7 I.P.).5X/.F.f.f.g.f.f.f.f.f.f.f.f.g.g.G.P.P.P..X.XI.P.I.M.",
"D.|.|.|.4X5X|.|.|. XG.G.x.f.f.f.f.f.g.h.G.G.F.K.I.3X}.P.9 B G ^ ! F O I.P.).5XI.G.F.G.F.F.f.f.f.f.g.f.x.G.G.].|.|.|.5X5X|.|.|.'.",
"D..X.X.X.X.X.X.X.X|.].].E.H.H.H.H.x.x.F.I.I./.(.).tX0X<Xq B ( G ^ F @ ,X>X0XtX].].(.I.I.F.x.F.J.H.H.H.E.].(.|..X.X.X.X.X.X.X.X'.",
"l.P.I.I.I.I.I.P.I.U.5X6X6X6X6X6X4XI.I.I.P.P.|.6X8XfXhXhXw B ( ( ~ H e iXhXhXgX8X5X.XI.I.I.P.P..X8X6X6X8X6X5X/.I.I.I.I.I.I.I.I.M.",
"l.P.I.I.I.I.I.I.I.I././././././.(.4X(.].4X4X]././.)._._.$ A G ' / ^ u u._._.).E./.].4X4X].U.4X]./././.U././.I.I.I.I.I.I.I.I.I.M.",
"l.P.I.I.I.I.I.I.I.I.I.I.I.I.I.I./.[.[.}.[.[./.I.P.P.P.K.$ S / ( ' / m j I.I.I.I.I.U.[.[.}.}.}.U.I.I.I.I.I.I.I.I.I.I.I.I.I.I.I.M.",
"z.K.P.P.I.I.I.I.I.I.I.I.I.U.U.U./.U..X.XI.I.I.I.I.I.I.m.O D ^ / ' / R 8 I.I.I.I.I.I.I.I.[.4XU.U.U.U.U.I.I.I.I.I.I.I.I.I.I.I.P.M.",
"e.x.P.P.I.I.I.I.I.I.I.I.(.6X5X6X5X5X6X}.I.I.I.I.I.P.I.d.@ G / ( / / ` * K.I.I.I.I.I.I.I.}.5X5X5X5X5X5X].I.I.I.I.I.I.I.I.I.I.c.p.",
"e.g.x.x.K.I.I.I.(..X.X.X|.(.(.(.(.(.(.[..XpX9X0XaXY.j.x e ( ' ` ] / ' , s.h.b.pXwX0XpX5X}.(.).E.].(.(.[..X.X.X].I.I.I.K.x.x.g.p.",
"e.g.g.g.x.G.I.(.[.}.|.}.].I.I.I.P.P.P.(.}.tX7X7XrX~.b.> b ( ` a m H ' v j v.W.rX<X<XtX}.).I.I.I.I.I.I.].|.}.|.[.].I.G.x.f.g.g.p.",
"e.g.g.g.f.h.U.3X}.P.I.I.I.I.I.I.P.P.P./.P.K.P.F.g.{.Z.= A ] E 3 @ N / R 7 Y.2Xf.F.P.K.P.P.P.I.I.I.I.I.I.I.I.P.[.4X/.x.f.f.f.f.s.",
"z.c.f.g.f.j.5XJ.G.I.I.I.I.I.I.I.P.P.I.I.P.h.g.g.f.x.z   ` ] m v @ N ( ] - V.h.f.f.f.h.P.I.I.I.I.I.I.I.P.I.P.P.G.v..XH.g.f.f.x.m.",
"l.P.F.G.R.!.Y.h.h.x.K.I.I.I.I.I.P.P.].|.|.eXeXuXeX1Xg u ] { a n u M G X.i l ,XeXeXeXuX3X|.}.I.I.I.I.P.P.I.I.c.h.g.H.W.W.G.G.K.M.",
"B././._.8X0Xv.m.v.g.K.K.K.K.K.K.K.(.}..X.XaXaXaXaX8X* Z { { , I s B G +.A 2 6XdXsXaXaX2X1X|.U.I.K.K.K.K.K.K.h.j.b.v.7X9X_././.S.",
"oX6X6XgXhXfX7X6X!.f.f.f.g.f.f.f.m.6XH.h.h.j.h.v.I.m.O [ { X.@ A b s ] |  ., n.U.F.h.f.h.f.J.6XH.f.f.f.g.g.f.f.R.6X5XsXhXhX8X6X<X",
"B./.U.).).).U.(.].3X1XH.J.3X3X3X{.j.g.f.f.G.K.P.I.j v +.| [ O E B m ] | } R 8 P.P.P.K.h.f.g.v.!.3X3X3XY.v.3X3X_././.(.).)././.N.",
"l.I.I.I.P.I.I.I.U.}.!.R.R.!.!.W.R.g.f.h.F.P.P.I.P.5 W { | [ o E R t ] o.} X.= P.I.I.I.F.h.g.g.R.W.!.!.R.R.W.}.(.P.P.I.I.P.P.P.M.",
"l.P.I.I.P.P.I.I.I.P.h.{.{.g.g.g.g.g.g.F.P.I.I.I.H.= X. .o.[ o [ Z y } +.} X.p t.I.I.I.I.F.g.g.g.g.g.g.!.|.k.K.P.P.P./.P.P.P.P.M.",
"z.I.I.I.I.I.I.I.I.U.4X].I.P.I.I.I.I.P.K.I.I.I.I.y.i O.+.+._ 3 ` A u +.o.O.+.R 8 K.P.P.P.P.I.P.I.I.I.I.I./.5X(.I.I.I.I.I.I.I.I.M.",
"l.I.I.I.I.I.I.I.I.U.(.}..X.XU.I.I.I.c.t.m.I.I.I.8 I *.....%.u F A _ o.o. .+.X.% d.K.P.L.t.d.P.P.I.I.|.3X|.(.I.I.I.I.I.I.I.I.I.M.",
"d.K.G.I.I.I.P.I.I.I.E.|..X.X(.(./.(.7 d * 8 G.n.> _  .1.*.O. .~ ' o.O.O. .o..., j K.z = 1 - t.(.(.(.|..X.X(.I.I.I.I.I.P.P.K.K.m.",
"r.j.h.U.U.I.U.U.U./.4X).I.I.4X5X5X5X$ &.=.R % X o &.=. .O.O.O.{ O.;.;.O.O.O...R X = p X.&.J l 6X5X5XU.P.U.5X(.U.U.I.U.U.U.h.h.s.",
"XX7X4X5X4X6X4X4X4X4XU.I.I.I.U.U././.6 @. .%.&.< i %.=.1.*.*.O.;.;.O.O.;.-.=.=.&.o $.=.=.>.: k.U./.U.I.I.I./..X5X5X5X5X5X5X4X4X,X",
"V.W.W.W.W.!.8X|.}.[.I.I.I.I.P.I.I.I.r.d O.;.=., L =.1.2.2.*.-.;.1.O.1.1.-.=.-.*., W =.=.@.& P.I.P.P.I.I.P.P.).}.|.6X_.W.W.W.!.Z.",
"a.h.h.f.f.j..X(.U.P.I.I.I.I.I.I.I.I.N.& #.O.%.+ @.1.4.*.%.2.1.1.-.1.1.*.1.1.1.1.L v ..%.p y.I.I.P.I.I.I.I.I.K.U.E.|.b.f.f.h.h.s.",
"B.I.L.h.f.f.h.1X!.h.I.I.I.I.I.I.I.P.P.t.$ <.@.: 9.4.-.1.1.>.2.<.1.1.1.1.1.1.1.;.@., <.Y 5 M.I.I.I.I.I.I.I.P.x.R.5Xh.f.f.g.K.U.N.",
"l.P.I.G.G.G.f.J.R.{.|..X}.I.I.I.I.I.P.E.l y $.< 8.4.1.>.-.>.>.9.9.9.2.3.3.2.-.1.&.% Y # V.I.I.P.I.I.I.]..X.X|.R.H.f.F.F.K.P.I.n.",
"l.I.I.I.I.P.x.g.J._.!.!._.].].[.].].].].!.i.# K <.>.2.2.4.>.6.v < @X#Xq.#X8.8.<.6.  & Z._.].].].].].]._.!.!.!.H.f.x.K.I.I.I.I.M.",
"l.I.I.I.I.I.I.x.g.g.g.g.J.3X4X4X3X4X6X!.g.g.f L <.>.4.4.<.7.8.d - @X%X#X#X#X#X,.,.% a.f.R.6X3X3X3X4X3XT.g.f.g.h.h.I.I.I.I.I.I.M.",
"l.P.I.I.I.I.P.P.I.K.g.g.f.f.f.f.f.f.{.!.g.h.4 U 4.>.4.4.3.0.&X=X=X#X*X%X0.#X&Xw.6.1 p.f.R.3Xf.f.f.f.f.f.f.f.K.I.I.I.I.I.I.I.I.M.",
"l.I.I.I.I.I.I.I.I.I.G.G.F.h.f.f.j.!.R.R.W._.h U 4.,.3.,.0.&X&X&X*X$X*X-X*X&X0.0.w.; A.!.R.R._.J.f.f.f.F.F.F.P.I.I.I.I.I.I.I.I.M.",
"l.I.I.I.I.I.I.I.I.I.(.(.!.~.H.H.T..XL.L..X.Xu.K ,.,.,.7.q.&X&X*X%X*X&X&X&X&X0.&X@X= |..XE.G.3XR.H.H.~.!.].(.I.I.I.I.I.I.I.I.I.M.",
"l.I.P.I.I.I.I.I.I.U.6X6XwXhX8X8X3XI.I.I.I.I.A.< 8.,.7.5.&X&X&X*X*Xq.q.&X&X=X&X&X#.& I.I.I.I.P.|.8X6XgXyX6X6X/.I.I.I.P.I.I.I.I.M.",
"OX9XsXsX9X3X5X3X4X.X(.E.(.{.(./.U.I.I.I.I.I.U.$ #.3.5.7.&X*X*X&X&X&X&X&X=X*X&X&XP j I.I.I.I.I.U./.(._.W././..X4X4X4X3X9XsXsXtX,X",
"C.1XwXwX0X5X[.[.[.[.I.I.I.I.I.I.I.I.I.I.I.I.P.h i 9.3.w.&X&X=X=X=X=X=X=X$X%X@X+X% M.I.I.I.I.I.I.I.I.I.I.I.I.].].[.[.4X8XwXwX<X~.",
"z.P.K.P.|.3X(.P.P.P.I.I.I.I.I.I.I.I.I.I.I.I.P.N.& Q ,.,.0.&X=X=X&X&X&X=X#X%X@X; j I.I.I.I.I.I.I.I.I.I.I.I.I.I.I.P./.3X|.P.K.P.M.",
"y.f.g.P.P.).gX_.P.I.I.I.I.I.I.I.I.I.I.I.I.I.I.>XjX* $.w.q.&X&X+X$X=X-X=X$X#XK T qXI.I.I.I.I.I.I.I.I.I.I.I.I.I.I.(.fX:XP.P.g.g.p.",
"e.f.f.x.x.b.1X1X[.I.I.I.I.I.I.I.I.I.I.I.I.I.}.|.:XC.= L @X=Xq.&X%X=X;X;X#.1 g ,X.X|.I.I.I.I.I.I.I.I.I.I.I.I.I.].3X:XL.x.x.g.g.p.",
"e.f.f.f.J.T.].|.}.).<X>X:X(.].(.].(.).}.<X).}. XU.!.Z.h   L 6.&X-X#X$., # z  XL.].}.).>X|.(.].).].(.].|.<X<X).[.|.).T.b.g.g.g.p.",
"r.g.h.h.!.4X4XU.).0XfXgXdX5X6X6X5X6X5XyXhX8X].P.P.h.R.3Xk.  #.:.8.6.J 6 ,X_.h.K.P.(.6XfXpX5X5X5X5X5X5XpXgXgXtX_.P.5X6X{.h.h.h.s.",
"OX1X3X1XR.j.j.h.h.b.(.).(./././.U.U.U.}.9X(.G.h.g.f.h.J.1X+ @X6.,.:.L z b.j.g.h.h.x./.8X.XU.U.U././.U.(.).).b.h.h.v.v.H.3X5X3X,X",
"C.].].].L.F.f.f.g.g.x.K.P.I.I.I.I.I. X].Y.x.g.f.g.f.x.G.).q 6.6.w.6.L z K.x.f.g.g.g.x.T.W.}.I.I.I.I.I.I.K.x.g.f.f.f.x.P.(.[._.S.",
"z.I.I.I.I.K.h.g.g.g.f.v.P.K.K.K.K.K.|.!.f.g.f.f.g.g.c.P.P.6 #.6.4.w.K y.P.G.h.f.f.f.f.f.R.3XK.K.K.K.K.K.K.f.f.g.f.g.K.I.I.I.I.M.",
"z.I.I.I.I.I.P.h.f.g.f.g.g.g.g.g.g.f.{.!.f.f.f.f.g.G.P.P.P.6 #.#X8.$Xw z.P.P.K.g.f.f.f.f.R.1Xf.f.g.g.g.f.f.f.f.g.h.K.I.I.I.I.P.M.",
"l.I.I.I.I.I.I.I.P.G.f.g.g.f.g.f.g.f.h.E.1Xh.G.K.P.P.P./.P.y.; #.+XY 6 P.I.I.I.K.P.G.g.|.W.j.f.f.f.f.f.f.f.f.G.K.K.I.I.I.I.I.I.M.",
"l.I.I.I.I.I.I.I.P.P.x.g.f.f.f.f.f.g.g.M.|.T.E.]././.P././.N.8 * 2 = t.P.I.I.I./.).E.T.}.R.f.f.f.f.f.f.f.f.x.P.I.P.I.I.I.I.I.I.M.",
"l./.I.I./.I.I.I.I.I.I.x.g.g.g.g.g.g.g.c./..X5X6X.X/././.I./.I.N.m.L.I./.U.I.(.5X5X5X5X/.G.g.g.g.g.g.g.g.x.P.P.I.I.I.P./.U.U.U.N.",
"oX6X6X6X5X.XI.I.I.I.I.I.I.I.I.I././.P./.5X/./.(.6X6X5X5X6X6X6X6X6X6X6X6X5X6X6X6X}.I.U.5X}.I.I.I.I.I.I.I.I.I.I.I.I.I..X6X5X6X5X>X",
"V.(.(.].].]..X.X.X|.I.I.I.I.I.I./..X.X[././.[.|.(.(.(.(.(.).(.(.(.(.(.(.(.(.].(.}.}.I.(.}..X4X/.I.I.I.I.I.I.}..X.X.X[.(.(.).(.Q.",
"t.l.l.l.l.l.XXXXoXOXB.B.l.B.l.l.B.oXXXC.l.l.D.D.l.l.l.l.l.l.l.l.l.l.l.l.l.l.l.z.D.D.l.l.V.oXoXV.B.l.B.l.l.B.D.XXXXXXV.l.l.l.l.t."
};
