/* XPM */
static char *Dolphin_Gauche1743520334[] = {
/* columns rows colors chars-per-pixel */
"64 64 239 2 ",
"   c #371432",
".  c #30273B",
"X  c #1C2637",
"o  c #4C1238",
"O  c #442C3E",
"+  c #392946",
"@  c #38334A",
"#  c #343553",
"$  c #32304E",
"%  c #3E1A42",
"&  c #5C1E4B",
"*  c #571445",
"=  c #6B134A",
"-  c #78185B",
";  c #482946",
":  c #552D49",
">  c #463449",
",  c #582956",
"<  c #4A3752",
"1  c #593A58",
"2  c #59384C",
"3  c #652B54",
"4  c #683964",
"5  c #75386B",
"6  c #4A3D60",
"7  c #37415A",
"8  c #334E6B",
"9  c #3A5A77",
"0  c #324A6A",
"q  c #38617E",
"w  c #45475D",
"e  c #67475C",
"r  c #51566D",
"t  c #684966",
"y  c #73596E",
"u  c #784872",
"i  c #795B76",
"p  c #6E4C6A",
"a  c #4D627C",
"s  c #68626B",
"d  c #94196F",
"f  c #89256C",
"g  c #922F7A",
"h  c #81135A",
"j  c #864A76",
"k  c #3A6386",
"l  c #3C6596",
"z  c #3D77A5",
"x  c #3B5682",
"c  c #46688A",
"v  c #447899",
"b  c #4D7293",
"n  c #4679A5",
"m  c #437CB3",
"M  c #737589",
"N  c #9D2A81",
"B  c #AE2F8D",
"V  c #C32B9B",
"C  c #D31BA2",
"Z  c #D430AA",
"A  c #ED34BD",
"S  c #E939BC",
"D  c #F234BF",
"F  c #F735BF",
"G  c #E928B6",
"H  c #D51DAA",
"J  c #9A558A",
"K  c #8A5286",
"L  c #AD5194",
"P  c #886986",
"I  c #9B6A94",
"U  c #946F8E",
"Y  c #A46E9C",
"T  c #B057A5",
"R  c #B56FA6",
"E  c #DA4AB7",
"W  c #C345A8",
"Q  c #D554B6",
"!  c #F52DC3",
"~  c #F52AC3",
"^  c #EE35C0",
"/  c #ED3AC3",
"(  c #EE3ECB",
")  c #F433C1",
"_  c #F33BC5",
"`  c #F43ECA",
"'  c #F93BC6",
"]  c #E832C8",
"[  c #EC43C2",
"{  c #EB48C8",
"}  c #F243CC",
"|  c #F44ACE",
" . c #F444C7",
".. c #EC58CD",
"X. c #ED4DD3",
"o. c #F24AD1",
"O. c #F549D3",
"+. c #ED51D3",
"@. c #EE58D8",
"#. c #F354D5",
"$. c #F25CDB",
"%. c #F356D8",
"&. c #DA78D6",
"*. c #D270C7",
"=. c #EB64D8",
"-. c #E979D5",
";. c #F262D4",
":. c #ED7AE9",
">. c #F47BE8",
",. c #EE7DF0",
"<. c #F17CF2",
"1. c #F16EE9",
"2. c #DE58C4",
"3. c #5F809A",
"4. c #60809A",
"5. c #4687B8",
"6. c #5186BA",
"7. c #548ABC",
"8. c #5998BB",
"9. c #4E8EB4",
"0. c #628EAD",
"q. c #76A0BC",
"w. c #4C8FCA",
"e. c #468AC4",
"r. c #4C95C9",
"t. c #559BC9",
"y. c #4997D7",
"u. c #4998D7",
"i. c #4B9BD9",
"p. c #4796D7",
"a. c #519EDB",
"s. c #539DD7",
"d. c #4FA2CD",
"f. c #5CA3C8",
"g. c #56A1C8",
"h. c #4DA2DC",
"j. c #4FA8DF",
"k. c #4FA7D5",
"l. c #54A3DD",
"z. c #58A5DE",
"x. c #54ADDA",
"c. c #54A8D6",
"v. c #57B0DA",
"b. c #5AB1DB",
"n. c #68A7CB",
"m. c #72AFD0",
"M. c #66B4DE",
"N. c #7AB4D3",
"B. c #6EACD0",
"V. c #4FAAE0",
"C. c #51ACE1",
"Z. c #5CABE2",
"A. c #53B4E5",
"S. c #5BB4E6",
"D. c #54B9E7",
"F. c #55BAE8",
"G. c #5BBDEA",
"H. c #59BAE7",
"J. c #62AEE4",
"K. c #64B2E6",
"L. c #6AB6E9",
"P. c #63BCEA",
"I. c #6CB9EA",
"U. c #69BAE2",
"Y. c #72BEED",
"T. c #76BBE4",
"R. c #669FCA",
"E. c #5FC0EC",
"W. c #64C2ED",
"Q. c #6AC4EE",
"!. c #72C4ED",
"~. c #7AC9ED",
"^. c #79C4E9",
"/. c #6CC7F0",
"(. c #6FC9F1",
"). c #73CAF2",
"_. c #7ACCF4",
"`. c #78C6F1",
"'. c #7ED0F6",
"]. c #9C8598",
"[. c #A38A9D",
"{. c #B28AAF",
"}. c #9FA6AE",
"|. c #C58BBB",
" X c #C5B6BE",
".X c #89BCD9",
"XX c #85B9D7",
"oX c #D985C8",
"OX c #D598CD",
"+X c #DC89D6",
"@X c #CF97CA",
"#X c #E785DA",
"$X c #E39BD9",
"%X c #DAA8D5",
"&X c #D2B0D0",
"*X c #E887EA",
"=X c #F586E8",
"-X c #EE94EA",
";X c #F496EA",
":X c #F489F2",
">X c #F096F1",
",X c #F5ABEE",
"<X c #F4B7ED",
"1X c #F8A7F4",
"2X c #F5B6F2",
"3X c #E9B1E6",
"4X c #9EC0DF",
"5X c #85CCEE",
"6X c #8BCEEE",
"7X c #82C4E9",
"8X c #8CD0EF",
"9X c #82CEF4",
"0X c #8ECFF3",
"qX c #83D1F7",
"wX c #85D3F9",
"eX c #89D6FB",
"rX c #8DD9FC",
"tX c #89D1F2",
"yX c #94DBFC",
"uX c #9ADCFB",
"iX c #97D6F4",
"pX c #9ACAE7",
"aX c #A5DCF6",
"sX c #ACD2EE",
"dX c #A9E2FC",
"fX c #B7E6FB",
"gX c #AECCDD",
"hX c #FDCCFA",
"jX c #F7C4F6",
"kX c #FDDDFB",
"lX c #F8D6F9",
"zX c #EDCAEB",
"xX c #C9EAFA",
"cX c #DAF1FC",
"vX c #D8EFF9",
"bX c #E8F5FC",
"nX c #F3FAFE",
"mX c #FDFEFF",
"MX c #FCE5F9",
/* pixels */
"8.v.v.v.v.b.8X6X6X5Xb.b.b.b.b.b.S.8X6X^.v.v.^.^.v.v.v.v.v.v.v.v.v.v.v.v.v.v.v.v.^.^.v.v.M.iX8XM.b.b.b.b.v.v.~.6X6X6XM.v.v.v.v.c.",
"m.).(.(.(.(._.).).(.H.F.F.F.F.F.G._.).).(.H.Q.).).iX8X!.(./.(.(.(.(.(.(.(.'.iX).).Q.G.Q.(.).).E.F.F.F.F.D.D.(._._.(.(.(.(.(.(.T.",
".XeXeXeXeX'.D.F.F.F.F.F.F.F.F.F.F.F.F.W.eXW.G.(.yXcXfXeXeXeXeXeXeXeXeXwXeXdXbXyX_.E.G.wX(.H.D.D.F.F.F.F.D.D.F.F.D.D.'.eXeXwXeX6X",
"f.F.F.F.F.F.F.F.F.F.F.F.F.F.F.F.F.F.F.F.H.wXxXcXrXW.F.F.F.F.F.F.E.D.F.F.D.D.E.rXxXcXrXG.G.H.D.D.F.F.F.F.E.D.F.F.D.D.D.D.E.D.E.v.",
"f.F.H.D.D.D.F.F.F.F.F.F.F.F.F.F.F.F.D.W.qXW.!.).W.F.D.D.F.F.F.F.F.D.D.D.E.D.D.E.(.(.W.'.Q.D.F.F.F.F.F.F.F.F.F.F.D.D.D.D.D.E.A.x.",
"t.A.A.H.F.D.F.F.F.F.F.F.F.F.F.F.F.F.G.(.'.H.F.F.F.F.D.H.F.F.D.C.A.D.F.D.D.D.E.D.F.F.H._.).W.F.F.F.F.F.F.F.F.F.F.D.D.E.D.D.C.A.k.",
"6.p.p.A.D.D.F.F.F.F.F.F.F.F.F.F.F.F.'._.F.F.F.F.F.F.F.D.D.D.V.u.p.j.D.D.D.D.D.D.F.F.F.F.(.wXD.F.F.F.F.F.F.F.F.F.D.D.D.D.D.u.p.r.",
"6.p.p.u.u.i.F.F.F.F.F.F.F.F.F.F.F.F.'._.F.F.F.F.F.F.F.D.i.u.u.u.p.p.u.u.D.D.D.D.F.F.F.F.(.wXH.F.F.F.F.F.F.F.F.F.D.E.h.u.u.p.u.e.",
"n.L.I.L.l.u.C.A.F.F.F.F.F.F.F.F.F.F./.).(.F.F.F.F.C.l.V.L.I.^.pXpX7XI.L.Z.V.V.F.F.F.F.(.)./.F.F.F.D.F.F.F.F.F.F.D.j.u.a.I.L.L.M.",
"XXqXqX9XK.z.z.A.A.W.W.P.W.~.~.~.!.W.E.).rXW.G.F.A.u.a.Z._.9XiXxXvXaX9X_.J.a.p.C.A.F.W.eX_.W.E.(.~.~.~.Q.E.P.W.H.C.j.z.J.9XqXwX7X",
"t.H.F.i.`.rXeXl.J.rXrXrXdXmXmXnXbXrXrXeXyXrX/.C.y.y.I.wXa.y.h.D.H.V.y.i.9XY.y.y.C.P.rXrXrXrXeXcXmXnXmXfXrXrXrXL.h.wXeX_.y.D.H.b.",
"f.H.F.A.G.S.l.`.Y.l.l.a.b.!.Q.!.Q.G.E.Z.V.a.Y.Y.y.`.L.a.A.D.A.D.H.A.A.A.V.K._.i.L.`.l.l.C.E.E.I.!.!.!.J.a.V.l.I._.l.H.G.A.D.F.x.",
"f.F.F.F.F.F.K.Y.K.u.y.y.i.C.C.C.C.C.C.V.y.y.J.I.K.).K.V.A.D.D.D.F.F.D.D.V.S._.K.I.L.y.y.h.V.C.C.j.C.C.i.i.p.p.Z.Y.K.H.F.H.F.F.b.",
"f.F.F.F.F.W.eXl.u.u.y.y.p.y.y.y.y.y.y.y.y.y.y.Z.wXW.F.F.E.D.E.D.F.F.F.F.F.H.P.eXK.y.y.y.y.y.y.y.p.p.u.u.p.p.u.u.a.wXW.G.F.F.F.x.",
"g.F.F.F._.wXF.D.F.D.u.u.y.y.y.y.u.y.y.i.y.y.u.h.F.'.).F.E.x.n c.F.F.F.F.F./.wXF.V.i.y.y.y.y.y.y.y.u.p.u.i.i.C.D.F.F.'.'.F.F.F.b.",
"N._._._.wXeX_._._.(.C.V.l.y.y.y.y.y.y.i.C.C.V.A.F.qX).x.a 3 J # F.F.F.F.D./.wXF.C.V.V.C.V.p.y.y.y.y.y.h.C.V./._._._.wXeX_._._.^.",
"N.'.'.'.'.'._.'.(.).E.Q.E.S.S.b.Z.h.h.V.F.F.E.W.Q.dXq.< T =.L r 8X8X8X8X8XiXdX/.W.W.F.F.V.h.h.C.J.Z.Z.P.Q.Q.).'.'.'.'.'.'.'.'.~.",
"f.F.F.F.F.F.F.F.D.E.rXrXrXrXrXrXqXD.F.F.F.F._.rXyX}.1 #X..| 3 &XmXmXmXmXmXmXnXuXrX'.F.F.F.F.H.'.rXyXrXyXrXrXE.F.F.F.F.F.F.F.D.v.",
"f.F.F.F.F.F.F.F.E.D.E.E.E.E.E.E.W.wXW.W.eXwX(.E.9.1 #X+.} { o n.!.!.Q.!.!.!.Q.P.E./.wXwX(.E.wXQ.G.W.G.G.E.E.F.F.F.F.F.F.F.F.D.v.",
"f.F.F.F.F.F.F.F.D.D.A.E.E.D.D.D.G.(.).).(.(.E.5.< -.| | o.E + V.D.H.F.F.F.F.F.F.D.E.(.(.).(./.E.F.F.F.F.F.F.F.F.F.F.F.F.F.F.F.v.",
"t.D.F.F.F.F.F.F.D.D.D.D.D.E.E.E.E.E.'._.D.D.v.< +X..} O.O.E + x.D.D.D.D.H.D.F.F.D.F.F.F.(.eXE.E.G.G.G.F.F.F.F.F.F.F.F.F.F.F.D.x.",
"7.h.F.F.F.F.F.F.E.E.D.D.E.eXwXeXeXrXrX).D.D.q Y ;X| O.} O.{ * m p.u.p.p.A.H.F.F.F.F.F.F.(.rXeXeXrXeXeX/.F.F.F.F.F.F.F.F.F.F.j.w.",
"6.u.h.i.D.F.F.F.W.'.'.'.).W.E.E.E.W.E./.qXgX. jX1X;.o.{ | O.g 9 y.y.p.p.i.h.l.xXaXiXxXwX(.W.W.W.W.W.W.).'.'.'./.F.F.H.C.h.h.i.w.",
"6.u.y.p.h.C.F.W.).)._.).W.E.E.D.E.A.k.8.0.s U <X,X1X=X;.X.| 2., 5.y.y.p.p.l.U.sX8X8XdX'.W.F.F.F.F.F.F./._.)._.(./.F.A.h.p.u.u.w.",
"7.u.u.y.y.i.G.qX_.D.D.D.D.D.D.k.z 8 7 O e t K @X$X3X1X1X;X=X*.5 + 0 l z w.J.9Xi.x.H.D.D.D.D.F.F.F.F.F.F.F.F.H.(.wXE.h.p.p.y.y.w.",
"t.x.p.y.y.a.eXZ.V.D.F.F.A.5.7 > P P : j ,X;X#X*.*.-.=X=X=X=X#XoX$XR I p > $ 0 z e.u.u.D.D.D.D.D.F.F.F.F.F.F.H.C.l.qXZ.p.p.p.l.v.",
"f.D.C.V.P.!.J.i.i.j.D.r.0 t @X2X>X$X$X=X>.$.%.+.+.+.O.|  ./ /  .} / { ..-.-.T j : @ a 8.^.!.D.D.F.F.D.F.F.F.h.u.u.J.I.I.A.j.A.v.",
"n.E.W.(.iXiXl.c.h.i.9.$ U 2X,X-X=X>.=X:.1.@.%.+.+.%.| } } ( ( / ` / A A F A [ ;.-.*.j : w b 8.A.A.A.A.D.C.k.z l z s.0XuX!.E.E.M.",
"XXrXyXnXnXbXeXeXQ.m > &X1X-X:X+X-.=X<.>.1.%.%.#.@.+.o.} ` ` ' _ _ ' _ ) ! ) ) ) D D { ..*.I t + 8 e.p.m @ , f g : q.cXmXnXuXeX6X",
"n.G.G.Q.Q.Q.E.E.U.+ @X>X>X&.4 s j J #X>.$.%.%.$.o.| } ` ` ' ' ) D D _ D ) ) ) ! ! ~ ) D S { ;.#XY 3 +   B F ^ E ; c.Q.Q.Q.W.G.M.",
"g.F.F.F.H.D.D.D.5.i ,X>X-Xu  XMXMXzX&.$.$.@.$.#.o.O.} } ` ( _ ) D ) D ' A D ) ) ) ^ ) D ' ) ) S [ =.oX5 o g E g c H.F.F.F.F.D.v.",
"f.D.F.F.H.H.D.z X @X-X-X+Xy zXlXlXlX;X$.@.$.%.+.o.| } } } / _ ) F D _ ) ` _ F ! ) ^ A ' _ ) F ) A S _ ..*.J & . 9.D.F.F.F.F.D.v.",
"f.F.D.D.H.H.c ].2 1X:X:X#Xe w %XhXhX;X$.$.$.#.| O.O.} } ` ' _ ! ~ ! _ F F _ F D F F  .' F F D S Z F F D D [ *.; q G.F.F.F.F.F.v.",
"f.D.D.H.D.H.s  Xe >X:X,.*X4 [.hXjX$X-.%.%.%.O.O.o.} } ` ( ` ) ) D ! D S D D S Z V V g g N g B B = Z A ~ F D / B   d.F.H.F.F.H.v.",
"t.A.A.D.D.D.@ [.e *X,.1.1.&.5 5 K T =.%.%.%.X.X.| } } ` _ ' ' ) D ) _ Z N g J R |.%X&X|.R U I U 3 = H ~ F D ! ^ W + d.H.F.A.C.c.",
"7.i.i.H.G.H.9 M ; K *.:X<.<.,.-.=.%.$.$.$.%.#.O.| | ` ` ` / A ^ Z L L |.zXlXjX%XI w . 8 c b 4.4.b w * C G ~ ~ ^ S E : x x.a.a.r.",
"XXwXwXrX7Xa p R +X*X*X:X,.<.,.&.L @X,X1X>.=...X.{ B ! ` ' O.B R 3XlXlXjXjX%Xt 7 0.4XbXyXeXqXG.F.W.G.z   f C G A ! A S N < ^.tX7X",
"R.T.I.L.r M 3X:X,.,.,.,.:.:X*.K &XkXlXkXhXjX,X#X#Xf ] ` } { W j kXhX2X<XI 1 b U.).9XaX).)./.F.F.H.H.D.r.< o d C G A / ^ B c Y.m.",
"7.i.i.m M 2X1X,.,.=.*.T u t U lXkXkXkXkXkXkXkXkXlXp G ( ` } { : <X<X{.; M 4Xl.A.D.F.F.F.F.F.F.F.F.F.F.F.H.k.k @ ; - h h & k i.u.",
"f.H.A.5.t R M 4 4 M P }.&XzXMXkXkXkXkXMXkXMXMXkXkXY d A ` ( } f y > 0 5.i.J.9Xi.V.F.F.F.F.F.F.F.F.F.F.F.F.D.h.I.9X6.n m e.D.H.v.",
"f.F.F.d.+ O ].&X&XzX&X].P &XhXlXkXkXlXkXkXMXkXlXlX3X& V ) ] ( V X 5.k.C.i.l.J.!.aXxXxXwX/.F.F.F.D.D.D./.'._.`.L.Z.p.h.A.C.D.F.v.",
"f.F.F.F.t.k $ $ $ # 8 c # e {.%X<XjXjXjX2X<X3X%X@X[.>   B / { X., k.D.D.j.h.l.I.pXsXsX~.Y./././././.(.!.!.Y.`.Z.u.h.D.F.F.F.F.v.",
"f.F.F.F.F.F.D.i.y.u.y.u.h.n.c w > > 2 3 ; ; & = o k 5.5.+ d S ( g d.F.F.F.F.A.h.y.y.y.y.I.rXwXwXwXwXwXJ.y.y.u.u.i.A.F.F.F.F.F.v.",
"f.F.F.F.F.D.D.D.F.D.u.u.u.u.i.u.w.e.n.R.l % C C 3 k.F.F.S.r o f ; d.F.F.F.F.F.F.l.y.y.y.L.9Xy.y.y.y.y.p.y.y.D.F.F.F.F.F.F.F.H.v.",
"f.F.F.F.F.F.F.F.F.F.C.C.V.y.u.u.a.Y.L.L.Y.0., d # b.F.D.D.D.k.5.9.E.F.F.F.F.F.F.A.S.!.Y.L.K.`.l.y.y.y.h.C.C.F.F.F.F.F.D.F.F.F.v.",
"f.F.F.D.F.F.F.F.F.F.W.W.Y.T.Z.Z.K.'.S.S.'._.M.b f.W./.Q.5X5X6X6X5X~.5X5X(.W.W.W.Q.Q.'.'.I.C.'.L.Z.Z.T.Y.Q.W.F.F.D.F.F.D.F.F.F.v.",
"f.D.D.D.F.F.F.F.F.G.rXrXdXmXuXrXwXF.F.F.F.F.'.yXrXrXrXuXnXmXmXmXmXmXmXmXdXrXrXrXrX'.F.F.F.F.F._.rXyXnXfXrXrXE.F.F.F.H.D.H.F.F.v.",
"XXuXcXcXdX'.wXwXqX'.W.P.Q.!.W.P.F.F.F.F.F.F.G.P.E.E.'.rXdX5X!.).!.!.~.dXrX'.W.E.P.G.F.F.F.F.F.G.E.P.).I.E.E.'.'.eXwXwXuXcXcXdX7X",
"m.~.aXaXiXeX(.(.(.(.F.F.F.F.F.F.F.F.F.F.F.F.F.F.D.Q.).).).G.F.F.F.F.F.).).(.Q.H.F.F.F.F.F.F.F.F.F.F.F.F.F.F.Q.(.).(.wXyXaXaX8XT.",
"f.D.D.D._.wXW.F.D.F.F.F.F.F.F.F.F.F.F.F.F.F.H.G.W.'.(.D.F.F.F.F.F.F.F.F.D.Q.eXQ.G.F.F.F.F.F.F.F.F.F.F.F.F.F.F.F.D.W.qX'.D.D.D.v.",
"6.u.u.D.H.Q.nX!.D.F.F.F.F.F.F.F.F.F.F.F.F.F.F.5XnX~.F.F.F.F.F.H.F.F.H.F.A.F.Q.bXiXH.F.F.F.F.F.F.F.F.F.F.F.F.F.F.W.bX5XF.H.u.p.r.",
"6.p.p.h.h.l.9X_.(.F.F.F.F.F.F.F.F.F.F.F.F.F./.'.5X_.P.h.i.V.i.i.i.h.h.h.i.S.9X9X'.).F.F.F.F.F.F.F.F.F.F.F.F.F.Q._.5XS.i.h.p.p.w.",
"6.p.y.y.Z.J./._._.Q.8X8X5XW.Q.Q.W./.W._.8X/._.(.H.Q.I.Z.y.y.y.y.u.y.y.u.Z.K.!.H.Q.).W.8X`.W./././.W./._.6X8X).)._.Q.K.Z.p.u.u.w.",
"7.s.i.i.Y.eXeXP.W.uXbXnXvXrXrXeXrXeXrXfXnXyXW.D.D.u.L.qXa.i.i.s.s.a.i.a.9XY.i.A.H.W.eXnXxXrXeXrXrXeXeXxXnXnXaXQ.H.wXeX_.i.i.a.w.",
"XXwXwXtXJ.a.a.i.i.l.W.Q.E.E.E.E.G.G.G._.aXW.C.u.u.y.i.Z.9XqXaXbXbXdXwX9XZ.i.u.i.i.h.E.yX'.G.G.G.G.G.E.W.Q.Q.z.a.u.l.a.Z.wXwXwX7X",
"n.Q.Q.Q.S.C.y.y.u.u.h.A.F.F.F.F.F.F.(.I.J.V.u.y.y.y.h.C././.!.0XpX`././.A.h.u.u.u.u.h.J.I.).F.F.F.F.F.F.A.h.u.u.p.p.l.A.Q.!.Q.U.",
"g.F.F.F.F.A.i.i.u.u.p.x.A.D.A.A.D.A._.Y.p.p.y.y.u.u.V.F.F.F.F.F.F.F.F.F.F.A.u.y.y.y.y.y.L.wXA.A.A.A.A.D.C.y.p.p.y.u.A.F.F.F.F.x.",
"f.F.F.F.F.F.D.i.p.p.u.u.p.u.y.y.u.y.`.Y.y.y.y.y.i.A.F.F.F.F.F.F.F.F.F.F.F.F.D.u.y.y.y.y.L.qXy.y.y.y.y.u.u.y.p.i.i.A.F.F.F.F.F.b.",
"f.F.F.F.F.F.F.D.A.A.p.p.y.y.y.y.p.y.l.K.9Xa.V.A.A.D.F.F.F.F.F.F.F.F.F.F.F.F.D.A.D.C.u._.I.a.y.y.y.y.u.y.u.u.V.D.A.F.F.F.F.F.F.v.",
"f.F.F.F.F.F.F.F.H.D.h.u.y.y.y.y.p.p.i.Z._.K.P./.W.F.F.F.F.F.F.F.F.F.F.F.F.F.F.W./.P.J._.K.p.y.y.y.y.p.u.u.h.D.F.F.F.F.F.F.F.F.b.",
"f.G.G.F.G.F.F.F.F.F.D.V.y.y.u.i.i.i.i.j.G.wXeXrXrXW.G.G.G.G.F.G.F.G.G.G.H.G.E.eXeXeXeXG.V.p.i.i.u.u.u.u.i.F.F.F.F.F.F.G.H.G.F.b.",
".XrXrXrXeXeXF.F.F.F.F.F.F.F.D.F.F.D.A.W.rXG.F.W.rXrXrXrXrXrXrXrXrXrXrXrXrXrXrXrX(.F.G.eX).D.D.F.F.F.F.F.F.F.F.F.F.F.'.rXrXrXrX6X",
"B.W.W.W.W./.'.'._._.F.F.F.F.F.F.E.'.'._.W.F.(._.W.W.W.W.W.Q.W.W.W.W.W.W.W.Q.W.W.).).F.W.).'.'.W.F.F.F.F.F.F.).'.'.'./.W.W.Q.W.U.",
"8.f.f.f.f.f..X.X.XN.n.f.f.n.f.f.n..X.Xm.f.f.N.N.f.f.f.f.f.f.f.f.f.f.f.f.f.f.f.f.N.N.f.f.B..X.XB.f.n.f.f.f.n.N..X.X.Xn.f.f.f.f.8."
};
