/* XPM */
static char *Mur1743520334[] = {
/* columns rows colors chars-per-pixel */
"64 64 240 2 ",
"   c #141513",
".  c #151B14",
"X  c #161C1A",
"o  c #1A1B1B",
"O  c #171818",
"+  c #1B231D",
"@  c #19261B",
"#  c #1F351E",
"$  c #242B1D",
"%  c #23301F",
"&  c #1A1E23",
"*  c #1F1D30",
"=  c #1A2222",
"-  c #1C2A2C",
";  c #1A2826",
":  c #1C3423",
">  c #1C332A",
",  c #1D3826",
"<  c #1E2B34",
"1  c #1D3836",
"2  c #242B25",
"3  c #213A2B",
"4  c #243725",
"5  c #222D34",
"6  c #24353B",
"7  c #343A31",
"8  c #211D2A",
"9  c #1D4234",
"0  c #1D493B",
"q  c #1F5335",
"w  c #2A4C2A",
"e  c #274729",
"r  c #35492C",
"t  c #2B532D",
"y  c #244937",
"u  c #295837",
"i  c #375837",
"p  c #354D2E",
"a  c #2C653A",
"s  c #366839",
"d  c #3B763B",
"f  c #445B35",
"g  c #4A6839",
"h  c #4A733B",
"j  c #1C3C42",
"k  c #243A47",
"l  c #253E53",
"z  c #333D42",
"x  c #1D4B4C",
"c  c #1C4545",
"v  c #1E564B",
"b  c #1D4F50",
"n  c #254849",
"m  c #334B45",
"M  c #235542",
"N  c #24594A",
"B  c #2B4B5C",
"V  c #284554",
"C  c #324C56",
"Z  c #2A545A",
"A  c #35595B",
"S  c #24634C",
"D  c #256D4E",
"F  c #2B6A48",
"G  c #356B46",
"H  c #29754B",
"J  c #347847",
"K  c #256D51",
"L  c #286751",
"P  c #2A7552",
"I  c #2A7852",
"U  c #347353",
"Y  c #2D5768",
"T  c #325C76",
"R  c #305268",
"E  c #34646A",
"W  c #366677",
"Q  c #2F6D72",
"!  c #467941",
"~  c #5B7B45",
"^  c #4B7158",
"/  c #497076",
"(  c #5F685F",
")  c #34844C",
"_  c #358A4E",
"`  c #3A874B",
"'  c #36954E",
"]  c #3A954E",
"[  c #3B974C",
"{  c #328452",
"}  c #348B52",
"|  c #3C8B53",
" . c #369551",
".. c #399452",
"X. c #3D9B52",
"o. c #2E8450",
"O. c #3C8D6F",
"+. c #478846",
"@. c #5B8646",
"#. c #49954A",
"$. c #578457",
"%. c #439D53",
"&. c #479755",
"*. c #539954",
"=. c #4C9053",
"-. c #648947",
";. c #6F9753",
":. c #51A54E",
">. c #4AAA53",
",. c #48A654",
"<. c #55A955",
"1. c #53B355",
"2. c #53B45A",
"3. c #5BBC5B",
"4. c #59B756",
"5. c #4DAF56",
"6. c #74A655",
"7. c #62BA5C",
"8. c #7AB85B",
"9. c #6AA759",
"0. c #419874",
"q. c #408D71",
"w. c #7ABB65",
"e. c #68AA61",
"r. c #728D67",
"t. c #5BC256",
"y. c #5CC15A",
"u. c #6AC55B",
"i. c #6DCA5D",
"p. c #62C35B",
"a. c #75C95D",
"s. c #7AD15E",
"d. c #6CC861",
"f. c #7BCA63",
"g. c #7CD363",
"h. c #839758",
"j. c #96B568",
"k. c #80AD5A",
"l. c #87CB64",
"z. c #84D564",
"x. c #8ADA67",
"c. c #96DB69",
"v. c #97D26F",
"b. c #A6D075",
"n. c #96E26A",
"m. c #9AE26B",
"M. c #97E266",
"N. c #8EE065",
"B. c #A8E773",
"V. c #B8EB7B",
"C. c #ACE974",
"Z. c #80C65F",
"A. c #C2F17D",
"S. c #376A86",
"D. c #3A728B",
"F. c #3B7796",
"G. c #386A94",
"H. c #3C79A4",
"J. c #49758D",
"K. c #4E7A94",
"L. c #637985",
"P. c #3F819E",
"I. c #3F85A7",
"U. c #4B859E",
"Y. c #6D8B8D",
"T. c #4389AA",
"R. c #448AB5",
"E. c #5289BD",
"W. c #4795B9",
"Q. c #4896B9",
"!. c #5891AF",
"~. c #6A95AA",
"^. c #70A2B8",
"/. c #4A99C6",
"(. c #4997D7",
"). c #4B9BD9",
"_. c #4A99D4",
"`. c #4C95CC",
"'. c #4DA5CE",
"]. c #5BA5CA",
"[. c #59A5C9",
"{. c #4DA4DD",
"}. c #4EA9D3",
"|. c #54A2DD",
" X c #58AFD9",
".X c #53ADD7",
"XX c #5AB0DA",
"oX c #52B1DD",
"OX c #68AACA",
"+X c #65B6DD",
"@X c #7AB7D7",
"#X c #6CAAD3",
"$X c #4FA9E0",
"%X c #51ADE2",
"&X c #5CAAE2",
"*X c #59A6E0",
"=X c #54B5E4",
"-X c #59B4E2",
";X c #54B8E7",
":X c #55BAE8",
">X c #5BBDEA",
",X c #5CB8E3",
"<X c #61AEE4",
"1X c #65B3E6",
"2X c #68BAE7",
"3X c #71BDEC",
"4X c #72BDE3",
"5X c #5FC0EC",
"6X c #64C2ED",
"7X c #6BC4ED",
"8X c #72C5EC",
"9X c #7BC8EC",
"0X c #6DC7F1",
"qX c #6EC8F1",
"wX c #7AC6F2",
"eX c #74CBF4",
"rX c #7BCEF5",
"tX c #76C3F0",
"yX c #7ED1F7",
"uX c #9DACB1",
"iX c #B3E682",
"pX c #CDF886",
"aX c #CBF384",
"sX c #85BBD9",
"dX c #89CBEC",
"fX c #83CFF6",
"gX c #86D5FA",
"hX c #8AD6FA",
"jX c #8ED9FD",
"kX c #8BD2F4",
"lX c #97D9F8",
"zX c #A9D5EE",
"xX c #AFE3FB",
"cX c #A3C5D4",
"vX c #C7E9F9",
"bX c #D8EDF8",
"nX c #E4F5FD",
"mX c #FAFDFE",
"MX c #E8EAEC",
"NX c #CED6DA",
/* pixels */
"^.oXXX XoX+XdXdXdXdXXXXXXX XXXXXXXdXdX9X X X4XdX.X X X X X X X X X X X X X X X X8XdX X X+XdXdX8X XXXXXXX XoX9XdXdXdX4XoX X X X X",
"#XqXqXeXqXeXeXeXeXeX;X:X;X>X:X:X5XqXeXeXeX:X6XeXeXlXlXqXqXeXeXeXeXqXeXqXeXfXzXrXeXqX;X7XeXeXqX6X;X,X:X:X:X:X7XeXeXeXqXeXeXeXeXeX",
"sXgXgXgXgXrX:X:X;X:X:X:X:X:X:X:X:X:X:X6XgX6X6X9XjXbXvXfXgXgXgXgXgXgXgXgXyXxXnXlXfX7X5XyXeX:X:X:X:X:X:X:X:X:X:X:X=X;XqXgXgXhXgXgX",
"].>X>X>X:X>X:X:X;X:X:X:X:X:X:X:X:X:X:X>X>XgXxXnXjX7X>X:X>X>X>X;X>X>X>X:X5X5X6XjXxXnXjX6X>X:X:X:X:X:X:X:X:X:X:X:X;X;X>X>X>X;X>X;X",
"].>X;X;X>X;X:X:X:X:X:X:X:X:X:X:X:X:X:X6XyX6X7X9X6X5X:X:X:X;XW.W.W.W.W.Q.oX:X:X5XqXrX5XrXeXW.W.W.W.W.W././.:X:X:X:X:X:X:X;X:X:X:X",
"/.%X%X;X:X>X:X:X:X:X:X:X:X:X:X:X:X:X5XqXrX>X>X:X:X:X:X:X5XoX<   O O X < }.:X:X:X:X:X:XqX4X- X X X o * * T :X:X:X:X:X:X:X>X%X%X%X",
"E.(.).=X:X:X:X:X:X:X:X:X:X:X:X:X:X:XyXrX:X:X>X:X:X:X:X5XI.Z ` #.#.#.i - '.:X:X:X:X:X:XI.Z G S y y v N < T :X:X:X:X:X:X:X;X{.).).",
"E.(.(.).).{.;X:X:X:X:X:X:X:X:X:X:X>XyXrX:X:X;X>X:X:X=XI.Q u 4.t.t.+.L B }.:X:X:X:X5XI.W e ) o.K P S M B F.:X:X:X:X:X$X(.).).(.(.",
"#X3X3X3X*X(.$X;X:X:X;X>X:X;X;X>X;X>X7XeXeX>X;X;X;X%X/.< h t.t.p.t.@ W 2X&X$X$X=X;X:X< y  .D K K P n 8 .X;X:X:X:X:X{.).(.3X3X3X3X",
"sXgXgXfX1X|.|.%X;X>X>X5X5X7X7X7X7X>X>XqXjX5X>X;X=XF.V 6.a.x.x.*.w uX+XgX1X|.(.%XI.n #.| I K D D , W !.7X>X>X>X>X;X{.|.|.gXgXgXgX",
"OX;X:X|.3XjXjX*X1XjXjXjXxXmXmXNXNX@X@X4X@XhXeX=X(.S.% c.m.m.m.;.r Q.`.(.8XtX`.`.W : 1.%.K P F N m uXmXvXjXjXjXwX).gXjXjX).=X;X;X",
"].;X;X=X:X>X*XwX3X|.|.|. X8X8Xo X X O X = `.2XrX(.J.% l.M.m.m.C.aX@ T =X|.1X3X5 s y.' ]  . .a = OX9X8X1X|.*X*X&XrX*X&X5X=X;X:X;X",
"].:X:X:X;X:X<X3X1X(.(.(.(.%X%Xo e J J +.=.n J.8X&XJ.2 l.n.m.m.B.C.b.r.B _.&X9X5 s 3... ... .a & W.$X$X{.(.(.(.*XwX<X:X:X:X:X:X:X",
"].;X:X:X>X6XhX*X).).(.(.(.(.(.k M H  .,.1.w R T.gX!.C 6.l.x.x.x.x.V.6.i T.}.-X6 s t... . . .F 3 G./.(.(.(.(.).).).fXeX>X:X:X:X:X",
"].:X:X:XeXyX>X;X;X;X(.(.(.(.(.(.T   ` ' ' 7.+.. 6XfX+X5 d t.t.t.7.t.s.v.4 / dX6 s y.[  .'  . .| ; T (.(.(.(.$X;X=X>XeXgX:X:X:X:X",
"@XeXrXeXgXhXrXeXeXeX%X%X{.(.(.(.`.H.y a [ 3.4.#.n U.rX/.Q p 1.7.3.3.p.a.Z.$.R !.W w l.d.2.] ' ..J N l _.$X$X0XrXeXrXgXjXeXrXeXrX",
"@XfXgXyXyXyXyXfXyXyX6X6X6X&X&X&X*X{.5 u ] 1.1.2.t / ^.8X~.^ =.#.#.1.5.4.f.@.u U.D.C 6.k.d.,.,.%...a 3 K.[.>XrXgXyXyXyXyXyXyXyXyX",
"].:X:X>X:X:X>X:X:X5XgXjXjXjXjXjXgX:X- u _ ..' ' 3.! 7 MXmXMX7 + +  .....X.,.2.2 J.fX2 ~ A.y.4.3.X.....; / jX0X:X:X:X>X:X:X>X:X>X",
"].:X:X:X:X:X:X:X:X:X5X5X>X5X>X>X!.C & u ' ' ..[ 3.h - +X4X7XW.R.T.y a  ...,.4.: W 7XOXY.g V.m.z.g.f.f.&.+.R oX:X:X:X:X:X:X:X:X:X",
"].:X:X:X:X:X:X:X:X:X:X:X;X>X;X>XS.X 3 a '  ...' 3.J - }.;X;X=X;X;X& y ..X.,.4.% T :XeXK.2 j.b.B.x.x.N.p.+.; .X:X:X:X:X:X:X:X:X:X",
"].;X:X;X:X:X:X:X:X:X:X:X>X>X5X2XD.  }  .' ....' 3.` - }.;X=X;X=X;X= y '  .,.4.: W :X;XD.& . ~ aXa.p.p.y.+.; }.:X:X:X:X:X:X:X:X;X",
"`.$X:X;X:X:X:X:X:X>X:X:X5XjXgXA ^ #.2.2.4.2.2.2.x.@.- '.F.k V l V F ) %.v.;.e + < V V ^ 6.j.v.l.y.t.y.t E W.;X:X;X:X:X:X:X:X%X(.",
"H.|.$X$X%X:X:X:X6XeXeXeXeX2X].4 d t.y.y.3.t.p.i.8.~ l T.W r r r r %.,.e.b.-.: 4 : : , ! l.iXl.5.2.:.*.n J.eXeX7X:X:X;X:X{.$X$X(.",
"E.(.(.(.$X;X:X>XqXyXgXyXeXD.+ 3.y.t.t.y.y.t.s.m.. T `.< ~ c.m.m.m.M.V.V.7 t ] ........o.K K L D K 9   +XyXyXgXeX6X:X;X%X(.(.(.(.",
"E.(.(.(.(.|.:XrXeX:X:X:X:XF.X t.y.t.y.y.3.z.9.i F.J.A ;.l.m.m.M.m.aXj.g s H P S N L S b b v c > : E R.=X;X;X:XQ.R C l l l V B `.",
"].|.(.(.(.*XfX<X*X:X:X:X;XF.@ t.y.y.y.u.u.8.$.l (.S.2 v.n.m.m.m.m.pXh.+ ) ) L b x x b x j c c V n P.;X>X}.W.R.W e r e e 5 = - _.",
"].;X*X$X<X2X2X|.).%X;X:X:XF.o y.y.y.y.g.v.4 / cXzXK.% v.n.n.n.n.c.pX6.= ) { D b x b c 1 & = T =X%X;X:X;XP.@ + s 2.4.3.3.H 1 2 }.",
"#X6X>XtXlXlX*X X|.(.%X;X%XD.+ p.y.y.g.7.=.5 ( bXbXY.$ l.n.c.g.i.d.B.-.$ ) o.D b b S - R !.!.[.>X%XI.C B U +.+.` } | { | 3 T !.>X",
"sXjXlXnXmXnXjXhX3X(.(.(.(.S.+ p.y.y.N.<.L > B E.2XT.n 8.l.x.y.t.t.n.-.; ) { D v v L @ R ).).jX2XI.W e 3 s 1.1...D P F M m ~.jXjX",
"#X6X6XrXdXrX6X6X0XwXwX*X|.K.o 7.p.t.n.<.K K y + ;X;X'.> d t.t.3.t.M.-.@ ) ..} P N x o R (.(.&X1Xk s t.y.,.D D K K K 9   sXeX6X6X",
"].;X>X:X;X:X:X=X>XwX8X1X2X#XT.3 ` 7.M.9.K K S M V F.=XW.W w #.,.,.u.7.6.w d 2.] I L X R ).).G.C 6.$.L U K L K y : > Y R.;X:X;X;X",
"].;X:X:X:X;X'.'.'./.R.#X#X`.(.k G *.z.<.P D K K @ E '.Q.D.n G _ ' 2.d.l.i g :.%._ P > Y /.R.R + 8.<.G G L K N M k k F.;X;X:X:X>X",
"[.:X:X:X>X=X6 o O O o o o W ;X;XD.. 4.>...H K K D 0 o o S.%X< t  . . .%.x.@.2 <.>.....i & o & @ :.f.M.n.e.c & W :X:X:X:X:X:X:X:X",
"[.:X:X;XT.Z ;.6.6.6.6.6.6.^ B B S.I.i @.a.8.7.>._ F M M M V = e S  . ...<.:.+.t +.s.2.[ a G e @ H =.&.d.3.=.X < B B P.:X:X:X:X:X",
"[.=XoX/./ i Z.z.z.Z.l.f.l.;.p 3 E W.B $.k.Z.u.t.,.&.+.} G e + ; c } _ } } X.<.3 g 8.u.4.,.X.J e M N K ,.5.<.f 7 : O W :X;X=X;X%X",
"E.(.`.k h n.p.,...D K D  .4.n._ u X XXW o . i t.N.M.M.c.s.1.# . O L K K K D K D 0 . c.g.y.t.t.3.4 y K K K K aXv.} . W >X:X$X(.).",
"@X!.C ! <.a.s r e 6 6 1 H | 4.f.&.y Z K.~.uXuXt c.B.m.c.c.g.#.i X > q D K K K K y . f ;.x.z.i.t.#.a , L K P e.f.b.s N C wXwXwXwX",
"#XK.2 <.4.#.A C V B B n M H X.z.<.K = J.rXxXY.  m.c.m.m.m.n.i.! O . 1 D K I I I y o o h m.m.x.i.i.h O y M M ..w.pX<.s   +X3X3X3X",
"`.S.: :.J = @X6X;X;X:XoX- w  .y.&.L = D.=X;XF.. m.m.m.m.m.n.m.-.X . 9 D K o.'  .u . o h M.n.m.m.M.@.    O + _ w.pXm.-.  `.).).).",
"].F.+ 4 A H.).rX3X).;X X- u 5.} I D + D.%XR U #.d.a.d.d.i.u.g 3 . G o.} ,.5.5.t E T.8 s i.c.m.n.M.@.  T.W + _ w.pXm.l.6.V H.=X;X",
"].H.k 6 S.oX(.*X2XwX8XOXy s 5.K D D = W OXy s 4.4.3.t.y.4.:.w # # X.,.:.p.3.:.m L.cX3 d t.x.x.N.M.~   1X!.= ` w.pXm.m.m.2 S.>X;X",
"].,X;X:X;X=X{.).&X8XK.2 1.,.D K v x = o 2 1.<.[ ' ,.t.t.d + 1.y.y.y.s.N.M.-.- #XK.o | ,.t.p.y.p.x.-.  2XU.= ` f.pXm.m.m.2 D.:X:X",
"].;X:X:X>X;X;X{.(.l ( b.=.I P K q = o i %.) I I I } [ w u d 2.t.3.x.N.x.g Q W.V x q 2.4.y.y.y.p.u.h   #XG.+ ` w.pXm.m.m.$ S.:X:X",
"].;X:X:X;X;X;X=X&X& ~ A.$.U K K 0 O O d 3.o.K H P I J + s :.p.u.u.m.v.8.n D.oX5 9 H 2.3.3.t.t.3.:.G k H.W 4 &.f.V.c.M.m.% S.:X:X",
"[.:X:X:X;X:X:X:X;X- g m.pXj.K K 9 O O d 3.[ { K K D F + @.M.m.M.M.pXh.2 }.>XoX5 u  .] ,.3.t.t.3.: T (.& 9 X.x.g.t.t.s.M.% S.>X;X",
"[.:X:X:X>X:X:X:X;X- g m.m.b.iXP N y O # e 5.%.K K K S + ~ m.m.n.m.pXh.5 .XK.k N H  . .X.%.X.>.4.4 < k w.l.z.i.p.t.t.+.e Q..X>X;X",
"].:X>X:X:X:X:X:X;X- h m.n.C.iX` K N > = & <.%.K K K S + @.M.n.m.m.pXh.2 ^./ ; D o... . . .' #.#.t e 4 f.z.f.p.y.t.y.h   .X;X;X:X",
"@XjXvXvXlXrXrXrXyX5 g m.M.m.n.7.&.K K 1 @ _ { K K D S + ~ M.M.M.m.pXh..   5 M }  .' .... ...a @ <.p.7.] ....3.y.y.p.h   zXvXxXyX",
"@XlXvXvXxXgXyXyXyX- g M.M.x.i.y.4.,.} U G e u } D K D 0 y g 7.z.M.C.b.j.4 1 L P o. . . ._ e y M [ %.%. . .X.3.1.%.t / ^.xXvXxXfX",
"].-X;X;XeXgX5X:X;XY ^ 6.M.g.y.y.y.3.,.X. .e t H S D K v 1 @ :.u.z.z.c.v.7 1 K K o. .} J F 3 y K ....]  .' ' 5.[ d C ~.jX,X;X;X;X",
"/.).).=X>X9XnXeX;X;XF.# x.s.t.y.t.t.3.>.' ] a + x S K S 9 + ) >.t.t.t.1.# e K K I ..D 0 @ S K P }  . . .' ' ' s = bXzX>X;X$X_.'.",
"E.(.(.{.|.<XkXyX7X;X}.T.i p w %.1.y.y.4.2.' ) G ; 1 b v x 9 , a %.t.t.3.:.s > S P I v v u D K K I )  .' J , 4 E OXkX8X}.$X(.(.(.",
"E._.(.(.(.*X2XyXeX5X6X2XC k 6 J ] :.:.<.4.[ '  .: 1 c x x c = u [ 4.3.3.t.d ; M S L v v K K K K S F ) J G z k K.gX2X%X|.(.(.(.(.",
"E._.(.(.3XjXjX>XqXlXmXmXnXlXjX= & X O t ' ....' ' a @ c x x X t ' ' >.y.t...x @ > x K K K D K L @ O O X ( mXxXfX:XhXjXjX(.(.(.(.",
"sXfXfXfX2X|.|.).{.|.7X8X7X5X2XQ.W.Q.W.E : , : :  .o.F > 1 x c D X.X.X.%.X. .o.0 v D K v ; ; ; - T.Q.Q.Q.+XeX&X|.).*X$X|.fXfXfXfX",
"@XtXrXrX1X$X(.(.(._.{.;X>X:X:X:X:X>X6XU.k k k j O.O.O.n Z T Q Q O.0.0.O.0.O.O.Y E Q Q Z k C n V }.;X>X:X>X%X).).(.(.).$XrXrXrXrX",
"[.:X:X:X;X;X(.(.(.(.(.=X;X;X;X;X;X;XyXwX(.(.(.(.(.(.{.:X:X:X:X:X5X:X:X:X:X%X).(.(.(.(.(.-XjX;X;X;X;X;X;X;X(.(.(.(.).$X:X:X:X:X:X",
"[.:X:X:X;X:X;X{.(.(.(.(.(.(.(.(.(.(.wXwX(.(.(.(.(.oX5X:X:X:X:X:X:X:X:X:X:X:X:X{.(.(.(.(.1XjX(.(.(.(.(.(.(.(.(.(.(.;X:X:X:X:X:X:X",
"[.;X:X:X:X:X:XoX%X%X(.(.(.(.(.(.(.(.&X2X3X).{.%X%X;X:X:X:X:X:X:X:X:X:X:X:X:X:X%X%X{.(.1X3X1X(.(.(.(.(.(.(.(.{.%X$X:X:X:X:X:X:X:X",
"[.>X:X:X:X:X:X:X:X;X{.(.(.(.(.(.(.(.(.*XgX*X&X5X5X:X:X:X:X:X:X:X:X:X:X:X:X;X;X5X6X>X|.9X3X(.(.(.(.(.(.(.(.).=X:X:X:X:X:X:X:X:X:X",
"].:X:X:X:X:X:X:X;X>X;X{.(.(.(.(.(.(.(.{.>XhXjXjXjX6X:X:X:X:X:X:X:X:X:X:X:X5X:XyXjXjXjX6X%X(.(.(.(.(.(.(.(.;X;X:X:X:X:X:X:X:X:X:X",
"sXgXgXgXgXyX:X:X:X;X;X;X=X=X%X=X=X=X;X6XgX6X5X7XjXgXgXgXgXfXgXgXgXgXgXfXyXyXgXjXeX5X6XyXeX;X=X;X;X=X%X=X;X:X:X:X:X;XqXgXgXgXgXyX",
"@XeXrXeXyXeXqXqX0X7X:X:X:X:X:X:X>X7X7XqXeX:X5X7XyXeXeXeXyXeXeXyXeXeXyXeXeXyXeXeXeX7X:XqXeX7X7X6X:X:X:X:X:X:X7XqXqXqXeXeXrXrXrXeX",
"].=X=X;XoX2XkXhXkXfX>XXX-X-X=X=X2XkXkXrX,XoX8XfX;XXX;X;X;X,XoXoX;X,X;XXX;XoX;X:X8XfX=X,X2XkXkX8X-X-X=X=X-X=X9XkXkXkX8X=X=X=X=X=X"
};
