/* XPM */
static char *Collectible1743520333[] = {
/* columns rows colors chars-per-pixel */
"64 64 234 2 ",
"   c #080405",
".  c #030A06",
"X  c #050B08",
"o  c #0B0A0A",
"O  c #090808",
"+  c #091009",
"@  c #0C1416",
"#  c #131919",
"$  c #121012",
"%  c #2C181D",
"&  c #172816",
"*  c #1D3519",
"=  c #0D1E21",
"-  c #141C21",
";  c #351924",
":  c #162427",
">  c #172C2D",
",  c #2B312D",
"<  c #481F30",
"1  c #5D293F",
"2  c #56233A",
"3  c #4B2234",
"4  c #1C4F1D",
"5  c #2B5B28",
"6  c #224621",
"7  c #2C6129",
"8  c #2D6C2C",
"9  c #2D772D",
"0  c #316330",
"q  c #1B423C",
"w  c #1C3743",
"e  c #233D51",
"r  c #55334A",
"t  c #712B4F",
"y  c #2A4446",
"u  c #25445C",
"i  c #254A5B",
"p  c #315359",
"a  c #2E655F",
"s  c #2C5365",
"d  c #365B6B",
"f  c #325C7D",
"g  c #36677C",
"h  c #327070",
"j  c #444944",
"k  c #5E5E5E",
"l  c #565C57",
"z  c #4E754B",
"x  c #506571",
"c  c #6B716E",
"v  c #674F65",
"b  c #8D365D",
"n  c #873458",
"m  c #91355E",
"M  c #91385C",
"N  c #983666",
"B  c #8F3462",
"V  c #A73778",
"C  c #B0397F",
"Z  c #30A837",
"A  c #2FB339",
"S  c #31B33A",
"D  c #32BD3E",
"F  c #2FAB37",
"G  c #2F8330",
"H  c #32C13E",
"J  c #3D897D",
"K  c #5A8159",
"L  c #46B94E",
"P  c #7C8E7C",
"I  c #6DA570",
"U  c #33C741",
"Y  c #38D949",
"T  c #3BEB4F",
"R  c #3AE34C",
"E  c #3CEA51",
"W  c #4AEB5D",
"Q  c #53E865",
"!  c #68E978",
"~  c #59C261",
"^  c #345F83",
"/  c #356888",
"(  c #397490",
")  c #467689",
"_  c #457C99",
"`  c #51778C",
"'  c #B03980",
"]  c #BB398E",
"[  c #BE3992",
"{  c #AF3781",
"}  c #C6389A",
"|  c #C5389A",
" . c #C93BA4",
".. c #CF3EAC",
"X. c #C4489E",
"o. c #CF4BAC",
"O. c #CD64AD",
"+. c #DE4CCC",
"@. c #DE4AC5",
"#. c #DE54CF",
"$. c #E14DCE",
"%. c #E351CE",
"&. c #E15ACF",
"*. c #E44DD0",
"=. c #E25AD1",
"-. c #DF6BD1",
";. c #E576D7",
":. c #E26BD5",
">. c #3B8A84",
",. c #3C9296",
"<. c #3F83A3",
"1. c #578398",
"2. c #4C8D95",
"3. c #5386B9",
"4. c #548BBC",
"5. c #4D8EAF",
"6. c #46B4AE",
"7. c #48B3B1",
"8. c #658D9F",
"9. c #79E985",
"0. c #4A9BC8",
"q. c #599CC5",
"w. c #4997D7",
"e. c #4B9CD9",
"r. c #4A99D5",
"t. c #4B95D1",
"y. c #5CA2C7",
"u. c #5FA4C8",
"i. c #4EA4DE",
"p. c #4FA8DA",
"a. c #53A2DD",
"s. c #5AAED8",
"d. c #50ADD7",
"f. c #56AED6",
"g. c #74AACB",
"h. c #64B4DB",
"j. c #72AFCF",
"k. c #4FA9E0",
"l. c #51ADE2",
"z. c #5BAAE2",
"x. c #53B4E5",
"c. c #54B8E7",
"v. c #55BAE8",
"b. c #5ABDEA",
"n. c #5AB7E7",
"m. c #60AEE4",
"M. c #64B1E6",
"N. c #69B9EA",
"B. c #71BDED",
"V. c #73BDE1",
"C. c #4AD7C7",
"Z. c #4DD8CA",
"A. c #56E7D3",
"S. c #5FF3DA",
"D. c #52E2CF",
"F. c #61F3DB",
"G. c #69F3DE",
"H. c #72F5DF",
"J. c #63C1ED",
"K. c #6AC4ED",
"L. c #75C3EE",
"P. c #7CC4E8",
"I. c #6BC6F0",
"U. c #6FC8F2",
"Y. c #74CBF3",
"T. c #7ACDF5",
"R. c #77C6F1",
"E. c #7ED0F7",
"W. c #76F4E1",
"Q. c #858985",
"!. c #828988",
"~. c #8E9891",
"^. c #ACB6AE",
"/. c #B5BAB5",
"(. c #A8ADAB",
"). c #90A3A0",
"_. c #CA92B8",
"`. c #C8AEBE",
"'. c #86E793",
"]. c #B7C2B9",
"[. c #AAECB4",
"{. c #92CE98",
"}. c #85B8D4",
"|. c #E788DC",
" X c #D5B0CB",
".X c #E4AEDF",
"XX c #E998E1",
"oX c #EAB1E3",
"OX c #ADD7D4",
"+X c #8BCAEA",
"@X c #81CEF1",
"#X c #84D4F9",
"$X c #88D6FB",
"%X c #8FDAFD",
"&X c #8BD3F3",
"*X c #94D4F1",
"=X c #9ADCFA",
"-X c #A3DBF6",
";X c #8AF3E3",
":X c #BAE7E3",
">X c #A6E2FE",
",X c #B3F0F3",
"<X c #8ADDD0",
"1X c #C2CAC4",
"2X c #C6CEC9",
"3X c #C3C7C4",
"4X c #CAD3CC",
"5X c #D5DAD7",
"6X c #D4D1D3",
"7X c #D6E6D9",
"8X c #C3EEC9",
"9X c #E7CBE5",
"0X c #F2C5ED",
"qX c #F5D7F3",
"wX c #E8D6E6",
"eX c #DDEBE8",
"rX c #C0E5F7",
"tX c #C5EAFB",
"yX c #CEF4F3",
"uX c #E2E9E5",
"iX c #E6ECE9",
"pX c #EAEDEB",
"aX c #E4E3E5",
"sX c #ECF0EE",
"dX c #F6E6F6",
"fX c #EEF2F1",
"gX c #EAF7FD",
"hX c #E8FAFB",
"jX c #F4F6F5",
"kX c #F6FAFA",
"lX c #FEFFFF",
"zX c #FAF5FB",
"xX c #EDEEF0",
"cX c #E3C6DA",
/* pixels */
"4.s.s.s.s.h.+X+X+X+Xs.s.s.s.s.s.h.+X+XP.s.f.V.+Xs.s.s.s.f.s.s.f.s.s.f.s.s.s.f.s.h.+Xs.s.h.+X+XP.f.s.s.s.s.s.V.+X+X+XP.s.s.s.s.f.",
"j.Y.U.Y.U.U.T.Y.Y.T.v.v.b.v.v.b.b.U.U.Y.U.b.J.T.Y.*X*XU.U.U.U.U.U.U.U.U.U.T.-XT.U.Y.b.J.Y.Y.Y.J.c.v.v.v.v.v.K.Y.Y.E.Y.U.U.U.U.U.",
"}.#X#X#XE.T.v.v.v.v.v.v.v.v.v.v.v.v.b.J.#XI.K.L.%XtXtX#X#X#X#X#X#X$X#X$X#X=XgX=X$XL.J.U.T.v.v.v.v.v.v.v.v.v.v.v.v.v.J.#X#X#X#X#X",
"y.b.b.b.b.b.v.v.v.v.v.v.v.v.v.v.v.v.v.b.b.E.,XlX%XI.b.b.b.b.b.b.b.v.v.b.b.b.b.@X>XhX=XY.b.v.v.v.v.v.v.v.v.v.v.v.v.v.v.b.b.b.b.b.",
"y.v.c.v.v.v.v.v.v.v.v.v.v.v.v.v.v.v.v.b.T.Y.T.*XY.b.v.v.v.v.b.c.v.c.v.v.c.b.c.I.Y.*XU.Y.Y.b.v.v.v.v.v.v.v.v.v.v.v.v.v.v.c.v.v.v.",
"q.l.l.c.v.v.v.v.v.v.v.v.v.v.v.v.v.v.J.U.T.b.b.v.v.v.v.b.v.v.x.l.l.x.v.c.c.c.c.c.v.v.v.K.Y.K.b.v.v.v.v.v.v.v.v.v.v.v.v.v.v.x.l.l.",
"3.w.r.x.c.c.c.v.v.v.v.v.v.v.v.v.v.v.E.#Xc.v.v.v.v.v.v.n.v.x.x.e.w.e.c.c.v.b.v.v.v.v.v.v.J.%XJ.v.v.v.v.v.v.v.v.v.v.v.v.c.c.k.r.r.",
"3.r.r.e.i.i.c.v.v.v.v.v.v.v.v.v.v.c.#XE.v.v.v.c.v.( i i i u u e e u u u i i i d v.v.v.v.J.%XJ.v.v.v.v.v.v.v.v.v.v.v.l.i.e.w.w.w.",
"g.B.B.B.z.w.k.x.v.v.v.v.v.c.v.v.c.c.I.U.T.b.c.c.c.u           X O       X     : v.x.c.J.Y.U.b.n.c.c.c.c.b.c.b.c.v.l.e.w.B.B.B.B.",
"}.$X$X$XN.a.a.l.b.b.b.N.J.K.K.K.K.b.b.I.%X5.f g g c c P Q.Q.Q.!.!.!.Q.Q.Q.Q.Q.!.g h g / P.b.b.J.K.K.K.J.b.b.b.b.c.i.a.a.#X$X$X$X",
"q.c.c.e.B.%X%Xz.n.%X%X%X>XlXlXlXkX>X%X=X%Xj o O   ~.1X7XiXiXiXiXiXiXpXiXiXiXiXeX. . . . V.$X%XtXlXlXlXgX%X%X%X#Xa.R.%X%Xw.l.c.c.",
"y.b.c.l.b.N.M.B.N.M.M.M.V.*X*X*X+X5.1._ _ q * 6 4 I {.{.[.8XiXpXfXjXfXfXfXfXfXpXc c c c 1.1.1.8.}.*X*X+XM.M.M.M.B.N.N.I.l.c.v.c.",
"y.c.c.b.b.c.M.B.M.w.w.w.e.l.l.l.0.> o $ X 6 7 Z S S S Y T '.iXfXlXlXlXlXlXlXlXlXlXlXsXsXj + X @ / p.l.p.w.w.w.w.B.N.n.v.c.c.v.v.",
"y.c.v.c.c.J.%Xz.w.w.w.w.w.w.t./ f > & 4 4 9 G D U U U Y T ! [.8XlXlXlXlXlXlXlXlXlXkX,X:XI a a a g / 3.w.w.w.w.w.w.R.#Xv.c.c.v.v.",
"y.c.v.v.Y.E.b.c.x.x.w.w.w.w.t.  $ 5 7 Z A A A R T R E E T T T 9.lXlXlXlXlXlXlXkXlXhXW.F.S.S.Z.C.a . f w.w.w.k.c.x.b.I.$Xv.c.v.v.",
"j.T.T.E.#X$XT.T.E.T.k.l.t./ ^ & * 9 G F A U U R T E E E T T T ! [.8XkXjXjXhXyXyXyX,XH.F.S.S.D.Z.,.s g / 0.l.N.T.T.T.E.$XT.T.E.E.",
"}.$XE.#X#X#X#X#X$X#Xb.N.5.= # 5 7 Z F S A Y T T T T T T T T T W W ! pXpXiXyXW.F.G.G.F.F.S.S.S.S.D.C.J @ ( b.L.#X#X#X#X#X#XE.#X#X",
"u.b.b.b.b.b.b.b.v.v.P.j.1.# & 9 9 F A D H R T R T T T T T T T W ! '.pXfXsXeX;X;XF.F.S.F.S.S.S.S.A.D.,.q 2.g.h.n.b.n.b.b.b.b.b.b.",
"y.v.v.v.v.v.v.v.v.v.2.# & 7 8 S S S S R T T T T T T T T T T T 9.uXsXlXlXlXkXiXeXF.F.F.F.S.S.S.S.S.S.D.C.h o s v.v.v.v.v.v.v.v.v.",
"y.v.v.v.v.v.v.v.v.v.( $ & 7 8 A S L L Q Q Q Q Q Q Q Q Q Q Q Q '.iXsXlXlXlXkXpXuX;XW.W.W.F.F.F.S.S.S.D.C.h o s v.v.v.v.v.v.v.v.v.",
"q.x.v.v.v.v.v.v.v.v.( @ & 7 8 S L 7XiXlXlXlXlXlXlXlXlXlXlXlXlXkXiXsXlXlXlXkXpXpXkXlXkXlX;XF.F.S.S.S.S.S.J X s v.v.v.v.v.v.v.v.v.",
"4.k.v.v.v.v.v.v.x.d.( # & 7 8 L ~ 7XpXkXlXlXlXlXlXlXlXlXlXlXlXkXiXfXlXlXlXzXpXsXlXlXlXlX;XH.W.H.S.S.S.F.>.& s d.d.v.v.v.v.v.x.p.",
"3.e.k.e.x.v.v.v.<.: , 5 4 7 z 8X7XjXlXlXlXlXlXlXlXlXlXlXlXlXlXlXlXzXpXpXpXfXkXlXlXlXlXlXhXhXhXhX;XF.F.S.C.6.J > i v.c.c.i.i.i.r.",
"3.w.w.w.k.c.v.b._ O & 7 7 7 z iXiXkXlXlXlXlXlXlXlXlXlXlXlXlXlXlXlXkXpXpXpXpXlXlXlXlXlXlXlXlXlXlX,XF.F.S.D.C.>.. q b.c.x.w.w.w.w.",
"3.w.w.w.w.e.n.#X8.o : 5 K 4X7XiXsXlXlXlXlXlXlXlXlXlXlXlXlXlXlXlXlXqX-.-.:.|.zXlXlXlXlXlXlXlXlXlXhXhX,XS.S.S.2.o y I.x.w.w.w.w.w.",
"q.l.w.w.w.z.$Xz./ o & 5 K iXuXuXiXlXlXlXlXlXlXlXlXlXlXlXlXlXlXlXlXqX#.$.+.:.zXlXlXlXlXlXlXlXlXlXkXkX,XF.F.F.,.X w T.R.w.w.w.w.n.",
"y.c.k.k.z.N.4.e y 6 c {.2XiXiXiXiXkXlXlXlXlXlXlXlXlXlXlXlXlXlXlXlXqX+.$.*.;.zXzXlXlXlXlXlXlXlXlXlXlXhXyXyX:X<Xh g p d M.i.a.a.c.",
"u.b.N.K.*X*Xg o * 0 P iXiXiXiXpXpXlXlXlXlXlXlXlXlXlXlXlXlXlXlXlXzXqX$.#.*.;.dXzXlXlXlXlXlXlXlXlXlXlXlXlXjXsXOX7.>.+ : >XL.K.b.J.",
"}.$X%XhXgXyX` o j ~.].7XiXiXiXiXpXlXlXlXlXlXlXlXlXlXlXlXlXlXlXqXXX|.$.$.$.=.XXXXlXlXlXlXlXlXlXlXlXlXlXlXkXjXOX7.>.X : gXhX,X%X$X",
"j.U.U.&X*X&X) o k ].5XiXiXuXuXiXuXlXlXlXlXlXlXlXlXlXlXlXlXlXlX0X*.%.%.%.%.%.*.=.zXlXlXlXlXlXlXlXlXlXlXlXlXlX7X6.2.+ : *X*X@XI.I.",
"y.c.b.v.n.v./ o k 1X7XiXiXiXiXiXpXkXlXlXlXlXlXlXlXlXlXlXlX0X;.;.*.+.$.$.$.*.$.=.zXlXlXlXlXlXlXlXlXlXlXlXlXlX:X6.J . = v.v.v.n.v.",
"y.c.c.v.v.v./ o k 2X4XuXiXiXuXiXiXlXlXlXlXlXlXlXlXlXlXlXlXoX%.%.%.$.+.$.$.+.$.=.zXlXlXlXlXlXlXlXlXlXlXlXlXlX:X6.>.. = v.v.v.v.v.",
"y.v.v.v.v.v./ o k 1X2X5X5XiXiXiXiXjXfXlXlXlXlXlXlXlXlXoXXX:.$.$.$.$.$.$.$.$.$.$.XXXXzXlXlXlXlXlXlXlXlXlXlXlXeXOX8.+ = v.v.v.v.v.",
"y.v.v.v.v.n./ o k 1X1X1X4XiXiXiXiXiXiXkXlXlXlXlXlXlXlXXX*.*.$.$.$.+.$.+.$.$.%.$.$.=.dXlXlXlXlXlXlXlXlXlXlXlXkXpX].+ = v.v.v.v.v.",
"q.x.v.v.v.v.( o k 1X1X1X4XpXiXiXiXiXiXlXlXlXlXlXlX0XoX;.*.*.$.$.+.$.$.$.+.$.*.$.+.=.qXjXlXlXlXlXlXlXlXlXkXjXxXpX`.+ = v.b.c.c.c.",
"3.r.r.v.v.v./ o k 1X2X2X4XiXiXiXiXiXiXlXlXlXlXzXlX;.*.*.*.$.$.$.*.+.$.$.$.$.$.$.#.&.wXiXkXlXlXlXlXlXlXlXjXpXiXiX].+ = v.c.i.r.0.",
"g.B.R.T.@XT.` o k 1X1X1X4X7X7XiXiXiXaXjXkXlXkXqX0X:.%.%.$.$.$.$.$.$.$.$.$.$.+.$.$.=..XoXxXkXlXlXlXlXkXkXsXpXiXiX/.X - T.T.Y.L.L.",
"g.L.R.B.B.R.` o k 3X1X1X1X1X4XiXiXiXiXiXiXjXzX;.+.%.*.*.$.$.$.$.+.+.$.+.$.$.$.$.$.$.+.*.9XiXjXlXlXlXjXiXiXiXiXiX/.+ - B.L.L.L.B.",
"3.w.w.w.w.m.` o k 3X1X1X1X1X4XiXiXiXiXiXiXdXqX:.*.%.*.*.$.$.$.$.$.$.$.$.+.$.+.$.$.$.*.$.9XpXkXlXlXkXjXiXiXiXaXuX^.o = w.w.w.w.w.",
"q.n.l.e.w.r.g o k 1X1X1X1X1X2XuXiXiXiXiXpX;.$.*.%.$.*.+.$.$.$.$.$.+.+.$.$.$.+.$.$.$.$.$.9XiXkXlXjXiXiXiXiXiX5X3X).+ = w.w.k.c.c.",
"y.b.c.k.k.i./ > k ^./.1X1X1X2XuXuXiXiXaX9X-.@.$.*.*.*.$.$.$.$.$.$.$.+.$.+.+.*.*.+.+.*.*.9XiXkXkXfXiXiXiXiXuX4X(.Q.> w l.k.x.c.c.",
"y.c.v.v.c.x.w.t./ # c /.OX1X1X2X4XeXsXO.X.X.} $.*.*.*.*.$.$.$.$.+.$.$.$.*.+.+.+.+.*.+.*.9XuXuXpXpXiXiXiXiXuX(.% y t.r.v.c.c.c.c.",
"y.c.b.v.v.v.x.e./ . l `.3X3X3X`. XcXcXX.} } } o.$.@.@.*.*.$.$.$.$.$.$.$.+.*.+.+.$.$.*.*..X9XaXiXiXiXiXiXuXaX~.  w l.c.v.v.v.b.c.",
"y.c.c.v.v.v.v.l.( . l OX3X3X`.X.X.X.X.} } } } .. .} } @.*.$.$.$.$.$.$.$.*.+.*.*.$.+.*.*.&.:.oXpXiXiXiXiX5X1X8.X w x.c.c.v.v.c.b.",
"y.v.v.v.v.v.v.v.<.# k ].3X3X`.} } } } } } } } } } } } o.*.$.$.$.$.$.+.+.$.$.+.+.$.$.+.+.+.$.oXiXiXiXiXiX5X1X!.# u v.v.v.v.v.v.v.",
"y.v.v.n.v.v.v.v.c.c.( - % b m } } } } } } } } } } } } } | | | ..$.$.+.+.$.$.+.+.+.+. .| | |  XiXiXiXiXiXc o s b.c.v.v.v.v.v.v.v.",
"y.v.n.n.v.c.v.v.c.c.1.# % m N } | } } } } } } } } } } } } } } ..$.$.+.+.+.+.+.+.+.+. .| | |  XaXiXiXiXaXc . s c.c.c.v.v.v.n.v.v.",
"j.$XrX,X=XT.T.E.T.Y.2.# % m m N N N N } } } } } } } } } } } } }  . . . . . . . . . .| | | | .XaXiXpX5X2Xc . d T.T.E.T.E.rXrX,XT.",
"}.-XgXgX,X%X$X$X$X$X( # ; b B m m b b [ } } } } } } } } | } } } } } } } } } } } } } } } [ |  XeXiXpX5X3Xk + d $X$X$X$X%XgXgXgX$X",
"u.b.c.c.U.#Xn.n.n.x.d.0._ % ; M M b m [ } } } } } } } } } } } | } } } } } } } } } } } |  .| o.O._.4X~., ) 0.f.c.v.v.J.=Xc.c.c.b.",
"q.e.k.x.n.@XgXR.v.v.v.v.5.O $ N n b M ] } } } } } } } } } } } | } } } } } } } } } } | | | | | | _.OXc + ( c.v.v.v.,XrXJ.c.k.i.e.",
"_ w.w.k.z.N.,XT.b.b.v.v.p.5._ ; < n b V V V V ] } } } } | } } } } } } } } } } } | } | | | | { V v j x 5.0.v.v.b.K.-X-Xa.l.i.w.w.",
"t.w.w.w.a.z.b.E.T.J.L.L.K.b.h.@ # t M M M B B ] } | } } } } } } } } } } } } } } } } } } [ | V B 2 o ) J.L.L.B.J.T.I.n.z.w.w.w.w.",
"_ w.w.w.M.$X$XB.I.$XgXgXyX$X&X` ` 1 3 3 3 t m V V V C [ } } } } } } } } } } } } C V ' V t t 3 3 k ` j.-XgXhX,X#XJ.T.$X$Xw.w.w.w.",
"}.B.B.B.B.M.M.z.l.M.*X*X&XI.I.I.h.: + . o t m m m m b { } } } } } } } } } } } } B b b b % . . @ ` I.I.Y.*X*XP.M.k.m.M.M.L.L.L.L.",
"}.#X$X$XM.e.w.w.w.r.x.c.c.v.v.v.f.( g ( x r 2 2 2 n m N C C C C ' ' ' ' C C C C 2 2 2 2 x g g / 5.b.v.v.v.x.i.w.w.w.w.e.#X#X#X#X",
"y.b.b.b.v.l.w.r.w.w.w.l.c.c.c.c.c.c.E.R.a.e O .   t m b m m b m m m b b m m m b O O O o 0.%XJ.v.c.c.c.c.x.i.w.w.w.w.i.c.b.b.b.b.",
"y.v.c.v.v.c.x.i.w.w.w.e.e.e.i.e.e.e.T.@Xw.^ u u u r 2 r 1 1 1 r 1 r 1 1 1 1 1 r u u u u q.%Xz.w.e.e.e.i.e.w.w.w.w.l.x.v.c.c.v.v.",
"y.v.v.v.v.v.v.k.i.k.w.w.w.w.w.w.w.w.N.B.m.a.w.k.i.u . . .   X X   . . . . .   - i.i.w.z.M.B.z.w.w.w.w.w.w.w.e.k.k.x.v.v.v.v.v.v.",
"y.v.v.v.v.v.v.v.c.c.e.w.w.w.w.w.w.w.w.a.$Xm.z.b.b./ i i i i i i i i u i i i i d b.b.k.N.R.w.w.w.w.w.w.w.w.w.l.v.c.c.v.v.v.v.v.v.",
"y.v.v.v.v.v.v.v.v.v.v.k.w.w.w.w.r.r.r.i.v.#X%X%X%XJ.v.v.v.v.v.v.v.v.v.v.v.c.v.E.%X%X%XY.x.w.w.w.w.w.w.w.e.x.c.v.v.v.v.c.v.c.c.v.",
"j.E.T.E.T.U.v.v.v.v.v.x.l.l.l.l.l.l.k.v.T.Y.I.I.%X#XT.E.T.T.T.T.T.T.T.T.T.T.T.$X$XU.I.U.I.l.l.l.l.l.l.l.l.c.v.v.v.v.b.E.T.E.T.T.",
"}.#X#X#X#XE.J.b.b.J.v.v.v.c.c.c.b.J.J.K.#XJ.b.b.#X#X#X#X#X#X#X#X#X#X#X#X#X#X#X#XE.b.v.I.E.b.J.b.v.v.v.v.v.v.b.J.J.J.I.#X#X#X#X#X",
"y.v.v.v.v.I.%X%X%X%Xv.v.v.c.b.c.b.#X%XE.v.v.Y.%Xv.v.v.v.v.v.b.v.v.v.v.c.b.v.v.v.J.$Xb.b.J.%X%XU.v.v.v.v.v.c.Y.%X%X$XE.v.v.v.v.v."
};
