/* XPM */
static char *Dolphin_Droite1743520334[] = {
/* columns rows colors chars-per-pixel */
"64 64 239 2 ",
"   c #371432",
".  c #30273B",
"X  c #1C2637",
"o  c #4C1238",
"O  c #442C3E",
"+  c #392946",
"@  c #38334A",
"#  c #343553",
"$  c #32304E",
"%  c #3E1A42",
"&  c #5C1E4B",
"*  c #571445",
"=  c #6B134A",
"-  c #78185B",
";  c #482946",
":  c #552D49",
">  c #463449",
",  c #582956",
"<  c #4A3752",
"1  c #593A58",
"2  c #59384C",
"3  c #652B54",
"4  c #683964",
"5  c #75386B",
"6  c #4A3D60",
"7  c #37415A",
"8  c #334E6B",
"9  c #3A5A77",
"0  c #324A6A",
"q  c #38617E",
"w  c #45475D",
"e  c #67475C",
"r  c #51566D",
"t  c #684966",
"y  c #73596E",
"u  c #784872",
"i  c #795B76",
"p  c #6E4C6A",
"a  c #4D627C",
"s  c #68626B",
"d  c #94196F",
"f  c #89256C",
"g  c #922F7A",
"h  c #81135A",
"j  c #864A76",
"k  c #3A6386",
"l  c #3C6596",
"z  c #3D77A5",
"x  c #3B5682",
"c  c #46688A",
"v  c #447899",
"b  c #4D7293",
"n  c #4679A5",
"m  c #437CB3",
"M  c #737589",
"N  c #9D2A81",
"B  c #AE2F8D",
"V  c #C32B9B",
"C  c #D31BA2",
"Z  c #D430AA",
"A  c #ED34BD",
"S  c #E939BC",
"D  c #F234BF",
"F  c #F735BF",
"G  c #E928B6",
"H  c #D51DAA",
"J  c #9A558A",
"K  c #8A5286",
"L  c #AD5194",
"P  c #886986",
"I  c #9B6A94",
"U  c #946F8E",
"Y  c #A46E9C",
"T  c #B057A5",
"R  c #B56FA6",
"E  c #DA4AB7",
"W  c #C345A8",
"Q  c #D554B6",
"!  c #F52DC3",
"~  c #F52AC3",
"^  c #EE35C0",
"/  c #ED3AC3",
"(  c #EE3ECB",
")  c #F433C1",
"_  c #F33BC5",
"`  c #F43ECA",
"'  c #F93BC6",
"]  c #E832C8",
"[  c #EC43C2",
"{  c #EB48C8",
"}  c #F243CC",
"|  c #F44ACE",
" . c #F444C7",
".. c #EC58CD",
"X. c #ED4DD3",
"o. c #F24AD1",
"O. c #F549D3",
"+. c #ED51D3",
"@. c #EE58D8",
"#. c #F354D5",
"$. c #F25CDB",
"%. c #F356D8",
"&. c #DA78D6",
"*. c #D270C7",
"=. c #EB64D8",
"-. c #E979D5",
";. c #F262D4",
":. c #ED7AE9",
">. c #F47BE8",
",. c #EE7DF0",
"<. c #F17CF2",
"1. c #F16EE9",
"2. c #DE58C4",
"3. c #5F809A",
"4. c #60809A",
"5. c #4687B8",
"6. c #5186BA",
"7. c #548ABC",
"8. c #5998BB",
"9. c #4E8EB4",
"0. c #628EAD",
"q. c #76A0BC",
"w. c #4C8FCA",
"e. c #468AC4",
"r. c #4C95C9",
"t. c #559BC9",
"y. c #4997D7",
"u. c #4998D7",
"i. c #4B9BD9",
"p. c #4796D7",
"a. c #519EDB",
"s. c #539DD7",
"d. c #4FA2CD",
"f. c #5CA3C8",
"g. c #56A1C8",
"h. c #4DA2DC",
"j. c #4FA8DF",
"k. c #4FA7D5",
"l. c #54A3DD",
"z. c #58A5DE",
"x. c #54ADDA",
"c. c #54A8D6",
"v. c #57B0DA",
"b. c #5AB1DB",
"n. c #68A7CB",
"m. c #72AFD0",
"M. c #66B4DE",
"N. c #7AB4D3",
"B. c #6EACD0",
"V. c #4FAAE0",
"C. c #51ACE1",
"Z. c #5CABE2",
"A. c #53B4E5",
"S. c #5BB4E6",
"D. c #54B9E7",
"F. c #55BAE8",
"G. c #5BBDEA",
"H. c #59BAE7",
"J. c #62AEE4",
"K. c #64B2E6",
"L. c #6AB6E9",
"P. c #63BCEA",
"I. c #6CB9EA",
"U. c #69BAE2",
"Y. c #72BEED",
"T. c #76BBE4",
"R. c #669FCA",
"E. c #5FC0EC",
"W. c #64C2ED",
"Q. c #6AC4EE",
"!. c #72C4ED",
"~. c #7AC9ED",
"^. c #79C4E9",
"/. c #6CC7F0",
"(. c #6FC9F1",
"). c #73CAF2",
"_. c #7ACCF4",
"`. c #78C6F1",
"'. c #7ED0F6",
"]. c #9C8598",
"[. c #A38A9D",
"{. c #B28AAF",
"}. c #9FA6AE",
"|. c #C58BBB",
" X c #C5B6BE",
".X c #89BCD9",
"XX c #85B9D7",
"oX c #D985C8",
"OX c #D598CD",
"+X c #DC89D6",
"@X c #CF97CA",
"#X c #E785DA",
"$X c #E39BD9",
"%X c #DAA8D5",
"&X c #D2B0D0",
"*X c #E887EA",
"=X c #F586E8",
"-X c #EE94EA",
";X c #F496EA",
":X c #F489F2",
">X c #F096F1",
",X c #F5ABEE",
"<X c #F4B7ED",
"1X c #F8A7F4",
"2X c #F5B6F2",
"3X c #E9B1E6",
"4X c #9EC0DF",
"5X c #85CCEE",
"6X c #8BCEEE",
"7X c #82C4E9",
"8X c #8CD0EF",
"9X c #82CEF4",
"0X c #8ECFF3",
"qX c #83D1F7",
"wX c #85D3F9",
"eX c #89D6FB",
"rX c #8DD9FC",
"tX c #89D1F2",
"yX c #94DBFC",
"uX c #9ADCFB",
"iX c #97D6F4",
"pX c #9ACAE7",
"aX c #A5DCF6",
"sX c #ACD2EE",
"dX c #A9E2FC",
"fX c #B7E6FB",
"gX c #AECCDD",
"hX c #FDCCFA",
"jX c #F7C4F6",
"kX c #FDDDFB",
"lX c #F8D6F9",
"zX c #EDCAEB",
"xX c #C9EAFA",
"cX c #DAF1FC",
"vX c #D8EFF9",
"bX c #E8F5FC",
"nX c #F3FAFE",
"mX c #FDFEFF",
"MX c #FCE5F9",
/* pixels */
"f.v.v.v.v.M.8X8X6X7Xb.b.b.b.b.b.U.0X6XU.v.b.~.^.v.b.b.b.v.v.v.v.v.v.v.v.v.v.v.v.^.^.b.b.^.6X8XM.v.b.b.b.v.b.5X8X6X6Xb.b.v.v.v.8.",
"!./.(././.).).).)./.F.F.F.F.F.F.E.)._.(.(.F.(.).!.iX5X/.(.(.(.(.(.(.(.(.(.tXiX(.(.Q.F./.).!.).G.F.F.F.F.F.F.(.).).`.).(.(.(.).m.",
"6XeXeXeXeX_.F.F.H.F.F.F.F.F.F.F.F.F.F.(.wXG.P.).yXbXdXeXeXeXeXeXeXeXrXeXeXfXcXyX).E.E.eX/.F.F.F.F.F.F.F.F.F.F.F.F.F.qXeXeXeXrX.X",
"v.F.F.F.F.F.F.F.F.F.F.F.F.F.F.F.F.F.F.F.G.rXcXxXeXE.F.F.F.F.F.F.F.F.F.F.F.F.E.rXcXxXeXF.F.F.F.F.F.F.F.F.F.F.F.F.F.F.F.F.F.F.F.f.",
"v.F.F.F.F.F.F.F.F.F.F.F.F.F.F.F.F.F.D./.'.W.!.!.E.F.F.F.F.F.D.D.D.D.F.D.F.F.E.E.!.!.Q.'.Q.F.F.F.F.F.F.F.F.F.F.F.F.F.F.F.F.F.F.f.",
"c.A.A.F.F.F.F.F.F.F.F.F.F.F.F.F.F.F.E.).'.F.F.F.F.F.F.F.F.F.A.A.C.D.F.D.F.F.F.D.F.F.E.'.(.E.F.F.F.F.F.F.F.F.F.F.F.F.F.D.F.C.C.g.",
"w.p.u.A.A.F.F.F.F.F.F.F.F.F.F.F.D.D.qX).D.F.F.F.F.F.F.F.D.D.j.p.p.A.D.D.F.F.F.F.F.F.F.F.).'.D.F.F.F.F.F.F.F.F.F.F.F.D.A.A.i.p.6.",
"w.p.p.u.u.h.F.F.F.F.F.F.F.F.F.F.D.D.eX(.D.F.F.F.F.F.F.A.i.u.p.p.p.u.u.i.D.F.F.F.F.F.F.F.).'.D.F.F.F.F.F.F.F.F.F.F.F.h.i.u.p.p.6.",
"M.L.L.L.i.p.C.F.F.F.D.F.F.F.F.F.D.D./.).(.F.F.F.F.V.V.V.I.I.7XpXpXT.Y.L.z.j.V.F.D.D.F.).).Q.D.F.F.H.F.F.F.D.F.F.D.j.p.z.L.L.I.n.",
"7XwXwX9XJ.Z.Z.C.H.E.W.P.Q.~.^.~.!.W.E._.eXW.G.A.C.y.a.J.9X9XaXvXvXiX9X`.Z.a.i.A.D.G.W.rX).W.G.`.~.^.`./.W.W.P.F.A.z.z.K.9X9X9XXX",
"z.H.F.y.`.rXqXi.I.rXrXeXfXmXmXnXcXeXrXrXrXrXW.C.y.y.Y.9Xy.y.x.F.F.l.y.a.wXL.p.u.C./.rXrXrXrXeXbXmXmXmXaXeXrXrXJ.l.eXrX`.i.F.H.f.",
"v.H.F.A.G.S.Z.9XL.l.l.l.K.Q.!.!.Q.P.G.S.V.a.`.I.i._.K.l.A.S.A.F.F.A.A.A.l.L.`.u.!.Y.l.l.S.E.G./.!.Q.!.Z.a.V.l.Y.`.l.H.H.A.F.F.f.",
"v.F.F.F.D.F.K.I.Z.u.u.y.h.j.x.V.C.V.C.i.y.y.K.I.L.`.S.V.F.F.F.F.F.F.F.D.j.H.).K.I.K.u.y.V.V.C.V.j.V.C.i.y.y.y.K.I.K.F.F.F.F.F.f.",
"v.F.F.F.G.Q.qXl.u.u.y.y.p.p.u.u.y.y.y.y.y.y.y.K.wXP.F.F.F.F.F.F.F.F.F.D.F.F.W.eXZ.y.y.y.y.y.y.y.u.u.p.u.y.y.u.u.Z.eXW.F.F.F.F.f.",
"v.F.F.F.qX'.D.D.F.A.u.y.y.y.p.u.y.y.p.p.y.y.y.V.F.eX/.F.F.F.F.F.d.9.c.D.F.).qXF.i.y.u.i.y.y.y.y.u.u.u.p.y.u.D.F.D.D.wX_.D.D.F.f.",
"^.)._._.eXeX)._._.(.C.C.h.y.u.p.y.y.p.V.C.C.V.D.F.eXI.F.F.F.F.F.# J 3 a v.(.'.F.A.V.V.V.i.y.y.y.y.u.u.h.C.C.).).)._.eXwX_._._.N.",
"^.qX'.'._.'.'.'.'._.W.Q.P.Z.Z.Z.Z.h.h.C.F.F.E.Q.Q.dXiX8X8X5X8X8Xr L =.T 1 q.aXQ./.E.F.F.V.h.h.S.Z.Z.J.P.W.W.'.'._.'.'.'.'.'.'.N.",
"v.F.F.F.F.F.F.F.D.W.rXrXrXrXrXrX'.D.F.F.F.F.'.rXuXnXmXmXmXmXmXmX&X- { +.+X1 }.yXrX).F.F.F.D.D.wXyXrXyXrXrXeXE.F.F.F.F.F.F.F.E.g.",
"b.F.F.F.F.D.F.F.F.F.E.E.E.E.E.E./.wXG./.wXwX/.E.E.Q.!.!.!.!.!.!.n.O { } X.-.1 9.E./.wXwXQ.E.'.W.E.E.E.G.E.E.E.F.F.F.F.F.F.F.F.d.",
"v.F.F.F.F.F.F.F.F.F.D.F.F.F.F.F.E.(.).).(./.E.F.F.F.F.F.F.F.F.F.j.+ E O.| o.#X2 5.E.(.(.).)./.E.F.F.F.F.F.F.F.F.F.F.F.F.F.F.F.f.",
"x.D.F.F.F.F.F.F.F.F.F.F.F.G.H.G.H.E.wX).F.F.F.F.F.F.F.F.A.A.A.A.x.+ E O.| } @.+X> v.E.D.).'.E.E.G.G.E.D.F.F.F.F.F.F.F.F.F.F.D.g.",
"w.j.F.F.F.F.F.F.F.F.F.F./.rXrXrXrXeXrX/.F.F.F.F.H.A.F.A.u.y.y.p.m o X.o.} | +.;XY q D.D._.rXrXeXeXeXeXW.F.F.F.F.F.F.F.F.F.F.h.6.",
"w.i.h.i.A.D.F.F./.'.'.'._.W.W.W.W.W.Q.).tXxXyXdXxXz.h.i.u.u.p.p.x g | | | | ;.1XjX. gX'./.W.W.W.Q.W.W._.'.'.'.W.F.F.F.A.h.h.p.6.",
"w.u.u.u.h.A.F./.).).)._.W.D.F.F.F.F.F.Q.~.dXtX5XsXI.l.y.y.u.p.e., 2.{ | ..=X1X,X<XU s 9.8.k.D.D.D.D.F./.).)._.(.Q.F.j.h.p.u.u.6.",
"w.y.y.y.p.i.G.9X/.F.F.F.F.F.F.F.F.F.F.F.H.A.A.j.i._.J.w.z l 0 $ 4 *.#X=X1X1X,X$X@XK t e + 7 8 v d.E.F.F.D.D.D._.qXH.i.y.y.y.y.7.",
"x.x.p.y.p.Z.wXZ.C.S.F.F.F.F.F.F.F.F.F.F.S.u.u.e.z 8 $ > p I R $X#X#X=X=X=X=X-.*.*.#X>X,Xj : U P @ 7 5.F.D.D.D.x.z.wXl.y.y.y.C.t.",
"v.A.C.C.Y.Y.J.y.u.h.F.F.F.F.F.F.E.F.).^.8.a @ : j R -.-... .S [  .[  .} { #.| +.+.%.%.>.=X$X-X;X<X&Xp 7 d.D.j.i.i.J.!.P.V.C.A.f.",
"M.E.W.!.iX0Xs.v l n h.A.A.A.C.C.A.9.b w : j *.-...[ A D ^ ^ _ } [ _ ( } } | %.+.#.O.$.>.:.>.>.=X*X,X2XI X r.u.s.z.z.iXiX(.E.E.n.",
"5XrXyXnXmXcXn.: g f & # m p.5.9 $ t Y *...{ D D F ) ) ! ) ) ' ) ) _ ' ` } } #.$.%.%.%.1.>.<.:XoX+X-X-X1X@X@ 5.!.rXrXbXmXnXyXrX.X",
"M.G.E.Q.Q.Q.c.; E _ F B   @ , Y #X..{ S D F ! ! ! ) ) ) )  .D D ' _ ` ` } } o.o.$.%.$.$.>.-.K P y 4 &.-X1X@X+ P.G.G.Q.Q.Q.G.H.n.",
"v.F.F.F.H.F.F.c g E g o u oX;.[ S D F ' D ) A ) ) ) ) D ` D ) ! ) _ _ } } } o.o.+.$.@.$.$.&.zXlXMX Xu >X-X,Xy 5.F.F.F.F.F.F.F.f.",
"v.F.F.F.F.F.F.9.  : J *...D S A D D D ) _ A ^ ) ) ) _ ' ) D F F ) _ ( ( ` } | o.X.@.$.$.;.;XjXlXlXzXy +X>X-XOXX v A.F.F.F.F.D.f.",
"v.F.F.F.F.F.F.q O *.[ F F D F Z D ) _ F [ _ _ ) D D ' D ) ) ) ~ ) ' ' _ ` } } o.O.#.%.$.;.;XhXhX%X> e +X:X:X1X< [.c D.D.D.D.D.g.",
"v.F.F.F.F.F.d.  B / D F ~ D H = B B g g g B B V E S D D ) ) ! F ) ) ` / } } O.O.O.O.%.%.%.-.$X2XhX[.5 =X,.,.>Xt  Xs D.D.D.E.E.g.",
"c.A.A.A.F.d.+ W _ ) ) D ~ H = e U I U Y |.%X%X|.R J g N Z S ! F ) ) ' `  .} } X.+.#.+.%.%.=.T K 5 5 &.1.1.,.*X1 [.. E.D.D.A.x.g.",
"t.u.l.x.q & E S ) ! ~ G C * w b 4.4.v a 8 > 2 U @XjXkXzX|.L L W ^ A ` ` ` ' | | | #.%.@.$.$.$.1.:.<.<.*X:X&.K + s a E.E.F.i.u.9.",
"7X0X7X< N S _ D A G C h   n G.G.G.G.qXeXyXbXpX0.w t %XjXhXlXlX3XR B } ` ` ] B } { +.=.>.;X2X|.J &.<.<.,.:X*X*X+XR p a 5XeXtXeXXX",
"M.I.c B S _ G G C d o 6 r.S.F.F.H.F.Q.).~.aX5X(.M.b 1 I 2X2XhXlXj W } ` ` ] d #X*X,XjXhXkXlXlXzXK *.*X,.<.<.,.,.:X3XM a L.I.I.n.",
"r.i.k & h h - ; @ l l.D.F.F.F.F.F.F.F.F.F.F.F.D.A.l.4XM > {.,X<X, [  .`  .G 4 kXkXkXkXkXMXkXkXkXlX].e u T *.&.1.:X2X2Xi m i.a.7.",
"v.S.S.e.n m e.5XL.i.D.D.F.F.F.F.F.F.F.F.F.F.F.V.i.qXK.p.z 0 > y f  .( ` A d ].kXkXMXMXMXkXkXkXkXlXlXzX&X}.U M 5 5 P [.t 5.F.H.t.",
"v.F.F.C.A.V.y.Z.I.`.'.'.(.F.F.F.F.F.D./.qXxXxXaX`.J.i.u.C.x.5.X W } ( ` V * 3XlXkXlXkXkXkXkXkXkXhXhX&XP ].&XzX&X@X].O + d.F.F.f.",
"v.F.F.F.F.A.h.y.Z.!.Y.Y./././././././.!.`.sXsXpXI.V.V.V.F.F.x.<  . .] B   > Y @X%X3X<X<XjXjX2X<X%X[.e # c 8 # $ $ # k i.F.F.D.f.",
"v.F.F.F.F.F.A.i.i.p.p.p.J.eXwXwXwXqXyXL.y.y.y.y.i.D.F.F.F.F.t.g { Z d + 5.5.c o = & O : 3 2 > ; w c n.l.h.p.p.u.i.F.F.F.F.F.D.f.",
"v.H.F.F.F.F.F.F.D.A.u.p.p.y.p.y.u.u.9XL.y.y.y.l.D.F.F.F.F.F.d.; N o r A.F.F.j.3 C V % l R.n.e.p.y.y.p.p.p.d.D.F.F.F.F.F.F.F.F.f.",
"b.F.F.F.F.F.F.F.F.F.V.V.V.y.y.u.Z.Y.K.I.Y.Y.S.A.F.F.F.F.F.F.F.9.z j.D.D.F.F.v.# d , 0.Y.I.I.Y.a.y.y.y.V.C.C.F.F.F.F.F.F.F.F.F.f.",
"v.F.F.F.F.F.F.F.F.F.Q.Q.Y.T.Z.Z.K.qXC.P._.qX/.W.W.Q.Q./.tX5XtX5X5XtXtX5XQ.W.Q.f.b M.'._.S.S.qXJ.J.J.XXI.W.W.F.F.F.F.F.F.F.F.D.f.",
"v.F.F.F.F.F.F.F.D.E.rXrXfXnXrXyX'.F.F.F.D.D.'.rXrXrXeXdXmXmXmXmXmXmXmXnXuXrXrXrXyX_.F.F.F.F.F.wXyXyXmXaXrXrXE.F.F.F.F.F.D.D.F.f.",
"7XdXcXcXyXwXwXwXeX_.W.E.I.!.P.G.G.F.D.F.D.F.G.W.E.E.'.yXdX~.!.!.(.^.5XdXrX'.E.E.P.G.F.F.F.F.F.G.E.W.`.W.E.E.'.wXwXwX'.dXcXbXuXN.",
"^.tXaXaXyXwX)./.)./.F.F.F.F.F.F.F.F.F.F.F.F.F.F.F.(.(.(.).G.D.F.F.F.G.(./.).Q.H.F.F.F.F.F.F.F.F.F.F.F.F.F.F./.).(.).eXuXaXaX5Xm.",
"c.H.A.H.'.'.P.F.F.F.F.F.F.F.F.F.F.F.F.F.F.F.H.G.W.wXW.H.F.F.D.F.F.F.F.F.F./.qXW.F.F.F.F.F.F.F.F.F.F.F.F.F.F.F.F.F.W.wX).F.A.H.g.",
"r.u.i.D.G.5XbXP.F.F.F.F.F.F.F.F.F.F.F.F.F.F.F.iXbXQ.F.F.G.F.F.A.F.F.F.F.F.F.`.nXtXF.F.F.F.F.F.F.F.F.F.F.F.F.F.F.Q.nX!.F.H.p.u.6.",
"w.p.p.h.i.Z.9X'.Q.F.F.F.F.F.F.F.F.F.F.F.F.F.).'.6X9XS.h.i.h.i.a.i.h.h.h.i.P.9X9X'.(.F.F.F.F.F.F.F.F.F.F.F.F.F.(.qX5Xc.i.i.u.p.6.",
"w.p.y.y.Z.J./._.)./.8X8X~./.Q.Q.Q.Q.Q._.8XQ.).Q.F.!.L.Z.p.p.y.y.u.p.p.i.Z.L.!.F.(.).Q.8X`.Q.Q.Q.Q.Q./.9X8X8XQ.`._.Q.J.z.p.u.u.6.",
"t.u.y.s.`.rXeXG./.aXnXnXxXeXrXeXeXrXeXxXnXrXW.F.A.u.!.9Xa.a.s.s.s.a.i.s.qXL.i.D.A.Q.uXnXfXeXeXeXeXeXeXcXnXbXuXW.G.eXeX!.i.i.i.7.",
"7XwXwXwXJ.a.a.i.h.z.W.Q.E.E.E.E.G.G.E.'.yXG.l.i.u.u.i.z.9XwXdXbXbXaXwX9XZ.u.u.i.u.C.Q.uX_.G.G.G.G.E.G.W.Q.W.l.a.i.a.a.K.9XwXwXXX",
"U.Q.Q.Q.C.V.y.y.u.u.h.A.F.F.F.D.F.F.).I.J.h.i.y.u.p.l.A.Q./.~.0X0X!././.C.h.p.u.u.i.h.K.!./.F.F.F.F.F.F.A.h.u.p.y.y.C.S.Q.Q.Q.B.",
"v.F.F.F.D.A.i.p.u.p.u.C.A.A.A.A.A.A.wXL.p.p.y.y.p.i.C.F.F.F.F.F.F.F.F.F.F.V.u.y.p.u.u.u.Y.9XA.A.A.A.A.A.V.p.p.p.y.i.F.F.F.F.F.f.",
"v.F.F.F.D.D.D.u.p.u.u.u.u.u.u.u.u.p.9XL.p.u.y.y.i.A.F.F.F.F.F.F.F.F.F.F.F.F.A.y.u.p.u.p.Y.`.y.y.u.u.u.u.u.p.u.p.i.F.F.F.F.F.F.f.",
"v.F.F.F.F.F.F.D.A.C.u.u.u.p.u.p.u.u.l.L._.u.C.A.A.F.F.F.F.F.F.F.F.F.F.F.F.F.D.A.A.C.i._.L.a.y.y.y.y.u.y.u.u.A.A.A.F.F.F.F.F.F.t.",
"v.D.F.F.F.F.F.F.H.A.h.u.u.u.p.u.u.p.p.P._.J.P.Q.Q.F.F.F.F.F.F.F.F.F.F.F.F.F.H.W.Q.P.K.'.Z.y.y.y.y.y.u.u.i.h.D.F.F.F.F.F.F.F.F.f.",
"S.H.G.G.F.G.F.F.F.F.F.i.u.u.u.u.u.u.u.C.E.eXeXrXeXE.E.F.G.F.G.G.F.G.H.G.G.G.W.eXrXeXwXG.l.u.u.u.u.u.u.p.h.F.F.F.F.F.E.F.G.G.G.f.",
"5XrXrXrXeX'.F.F.F.F.F.F.F.F.F.F.F.b.F.).eXF.F.(.rXrXrXrXrXeXrXrXrXrXrXrXrXrXrXrXQ.F.E.eXQ.F.F.F.F.F.F.F.F.F.F.F.F.F.'.rXrXrXrX.X",
"M.W.W.W.Q./.'.'.'.).F.F.F.F.F.F.P.'.'.(.W.F.)._.W.Q.W.Q.Q.W.Q.W.Q.W.W.W.W.W.W./.).(.F.Q.).'.qXG.F.F.F.F.E.F.).'.'.'.Q.W.Q.Q.W.n.",
"8.f.f.f.f.n..X.X.XN.f.f.n.f.f.n.m..X7Xm.g.f.N.m.f.f.f.g.f.f.g.f.f.f.f.f.f.f.f.f.N.N.f.f.m..X7Xn.f.f.n.f.f.f.XX.XXX.Xn.f.g.f.f.0."
};
